<mxfile host="65bd71144e" scale="7" border="0">
    <diagram id="RkUYSlFUMsv63eNPxLgs" name="第 1 页">
        <mxGraphModel dx="1100" dy="863" grid="1" gridSize="10" guides="1" tooltips="1" connect="1" arrows="0" fold="1" page="1" pageScale="1" pageWidth="827" pageHeight="1169" math="0" shadow="0">
            <root>
                <mxCell id="0"/>
                <mxCell id="1" parent="0"/>
                <mxCell id="45" value="" style="shape=image;verticalLabelPosition=bottom;labelBackgroundColor=#ffffff;verticalAlign=top;aspect=fixed;imageAspect=0;image=data:image/png,iVBORw0KGgoAAAANSUhEUgAAAnwAAAE+CAYAAAAXlc2sAAAgAElEQVR4nOydd3Ac53n/v9uuoVCkVUZdij2SEzkeSYlsS3FLtT1JPIojjxN3jz12FNsZSYnsGcu2rGI1ilYhJUrskghWkwRJAERhAQiAIEAQBCh04NAPuI7r/XZ/f/D3ngHi7rBX9grwfmY8tsG93XfffcvzPpWx2+0S4sDzPOx2OxobGzE9PY1bb70VkvSnS6PRKHQ6HT772c+irKxs0b9RKBQKhUKhULKHRqPBhx9+iOPHj+O+++7DP/zDP0AURdnyF5/oH1iWhdfrRWdnJ1wuFz772c8iGo3GbiyKItRqNXg+4S0oFAqFQqFQKFlAEASYTCbU1NRAo9Hgn/7pnyCKouzfJ5XWGIaBTqfDtddei89//vMIh8OLJElJkhAMBql2j0KhUCgUCkVBJEkCz/MoKyuDWq1O+fey1HORSAR+v3+JwEehUCgUCoVCKXzYfDeAQqFQKBQKhaIsVOCjUCgUCoVCWeFQgY9CoVAoFAplhUMFPgqFQqFQKJQVDhX4KBQKhUKhUFY4VOCjUCgUCoVCWeFQgY9CoVByCMMwYBgm382gUCirDCrwUSgUSo5gGAaCIIBl6dJLoVByy7KrDsuy9DRKoVAoGcIwDLxeL86cOYPR0VGoVKp8N4lCoawikgp8pHRaKBTKVXsoFAplRcJxHObm5vB///d/OH78OEpKSvLdJAqFsopIWFqNZVlEIhGYTCZoNBpqgqBQKJQMYRgGHMfR9ZRCoeScZTV84XAYkUgkV+2hUCiUFQ11k6FQKPmAHjMpFAqFQqFQVjhU4KNQKBQKhUJZ4cgS+FiWBcdxSreFQqFQKJRl4TiOmsUplBSRJfCFw2EEg0Gl20KhUCgUyrIEg0FEo9F8N4NCKSqSCnzkBNXR0YHdu3cjEonQUxWFQqFQ8gLLsvB6vdixYwd6e3tp1RIKJQWSCnwsy0KSJOj1euzZswfRaJROLgqFQlnlkPQyud4PSPLq9957D/39/VTgo1BSQJZJVxRFeL1epdtCoVAolCJAFEUEg0GIopjzZ0uSBI/Hg3A4nPNnUyiFDsMwCVM/yY7S5fmEOZopFAqFsgpgWRaiKKKurg7f//73MTU1BY1Gk/N28DxPk1dTVjREe52OBjvRb+iMoVAoFIosyEZis9nQ29uLQCBAMzhQKAqwsCqPHKGPaPb0ej2efvppjI+PL/ktFfgoFAqFkhI8z0On08X8vCkUSvZQq9Xo6enBli1bUF1dDaPRKMvKyrIszGYzDh06BKvVukQLTgU+CoVCoVAolAJBq9Xi5MmTeOmll/DOO+9gfHwcgiDI+q0oigiFQnH9a6nAR6FQKBQKhVIgMAyD+fl5WK1WGAwGBAIB2b58ySLoqcBHoVAoFAqFUkAQE65arc5agBIV+CgUCiXPqFQq2SYbCoWSOyRJAsdxUKlURR8ZLjvXClETXq0qpOVtKBQKJT0YhkEkEsHly5fBcRw+/vGP0zWVUjBwHAdJkvKSb7FQEAQBMzMzsNvtuPnmm7F27dqi7Q/Z4mo0GoXH44Hb7Y79x+v10ggtCoVCSROO4xAIBPDBBx9g37590Gg0tHIEpSCQJAlutxuBQCDfTckrGo0G7e3t2Lp1K0ZHR6FSqfLdpLSRreGbnp7Gc889B57nIUkSIpEI1q5di5/85Ce44YYbIEkSFf4oFAolBRiGQTQaxfDwMHQ6HU1wTykIWJZFIBDA+vXr8cADD+ArX/kKOI4rWs1WJvA8D7PZjIGBATidzqI268peXVQqFW688UYIggBJkhCNRlFeXk4XKAqFQskAhmGgVquhVqvpoZlSEBBXg8rKSqhUKnzlK19ZtZpnSZLA8zw0Gk3RJxmXLa3dfPPNePLJJ6HRaCCKIhiGgSiKCIfDq1Lqp1AolGxBNhXiI00FP0q+YRgGZWVleSmdR1EG2QIfKZZNBD0CXZgoFAolM4jZaHp6GlqtNuY6Q6FQKNkiJWM08dNb+B8KhUKhZIZOp0N3dzc2b94Mu91e1H5CFAqlMKGrCoVCoeQZtVoNu92OU6dOwev1UoGPklcEQUB5eXksLQtlZUAjLigUCiXPkE11JaVl4XkePM8jEokgHA6vmPda6TAMg7m5OXR0dMBut9OE4CsIKvBRKBRKjlnp2Q0YhoHdbofdbse6deuwdu1amlC6CGAYBgzD4MMPP8QvfvELTE9PQ6fT5btZlCxB7QYUCoWSQxiGgcPhgM/nW7HmMkEQ0NPTg7feeguXL1+mkZ5FBsm1S1lZUIGPQqFQcgTJudfQ0ICqqiqEQqGiz+0VD5ZlYbPZ0NvbC5vNtiLfcSXDMAz1I12B0C9KoVAoOUSlUqGrqwvV1dUIh8MrdmNlWRY8z8d9P0mSIAgCdDrdin1/CqXQWNmOJBQKhVKgFJvWi2EYqFSqrCTa53keFosFDocDN910E60yQqHkAHq0olAolDxQTFGrpOav2WyG1+vN+H5lZWWoq6vD448/junp6aIRfjmOoxrJPLDS+z1X70c1fBQKhUJJCs/zsNvtePvtt/HpT38a0Wg0ow2KYRh4vV6YTKaiCg4IBoNgWTbvwsdqKr8nSVKsypfcCjTZ7h+lD2fk/ZQ++KxckZlCoVAoWYHjOPj9fpw5cwZjY2MQRTFjoaeYAgMYhkEwGMTRo0cxNDQU+1u+2pLIN3KlwbIsvF4vqqur0dfXB7VaLes32ewfJQV8kganrq4OnZ2dkCRJ0XG18kcMhUKhULKCKIp51SyxLAtBEHIubBHBY8OGDWhvb8+rsBoMBjE8PAy73V40pvB04TgOdrsdGzduRFNTE7RabdLrWZaFx+PB8PAwPB5PVp5vMBgwPT0NURSzPu6IVm/Lli2orq5GJBJR9JtSgY9CoVAosmBZNq++h8FgEA6HA9FoNC/tCAaDeTVB8zyPyclJ/OQnP0FVVRXKysry1pZcIYqi7H4vKSlBV1cXfvjDH+LixYsZj9eysjK8+uqr2LRpE9xut2IJ04PBIMLhsCL3XggV+CgUCoVS0BBt2vnz5/HEE09gZmZGlnkv2xRC8EA0GoXD4UAgEMh74A8xSSp5f5ZlZfc7wzAIh8NwOBxZEaAYhoHH40EwGFRUs53uuEq1/6nAR6FQKJSiwGq1oru7G9FodMWbMxPBMAwEQSiY91dSEErn3sTsny3BvJDLIKbaP1Tgo1AoFErRkG+tFuWKRsrhcODSpUswGAxZF4o4jgPP8zCZTOjq6oLNZitowSvXEM2ewWDA+fPnEQ6HZc0L2QIfUa3SyUahUCiFy0peq682YRVTpO9KgWVZaDQaDA8P44033kBjY+OywRSp4vP5IIoiOjo68Prrr8NoNNJ6zAsg87uxsRHPPvssfD6frHlARWYKhUKhFDVy864RYXG15LBTCoZhEAgEYDab4Xa7F5mXM+ljlmURDofx6KOP4u/+7u+g0WhgtVrzFqRT6LjdbszOziIajcq6XvbRaHBwEM8++yyGhoZW7OmRQqFQihWi7RodHcWzzz6Lvr6+rGteCgmWZXHmzBls2rQJk5OTsnO0UY1gejAMA41Gg23btmH79u2IRCLQarXgOC4m3JExmEkfS5KE/v5+zM7OgmVZqFSqbL3CioPjOKjVatnymOyv4nK5cPz4cczNzaXdOAqFQqEoi8lkwvHjxzE7O7uiN0uGYTA4OIjTp08v6+NFSsOdO3cODQ0NVGmRJoIgoLm5GS0tLQiHw4sEO47j4Ha70dTUhPb2dvA8n3Yf63S6FT12swnJ5ZdVHz4AiEQiVBVOoVAoBYwkSUW1VifbqJbbxERRRDQaXfZdOY5DNBpFdXU1KioqCibCtRiJRqNxTYiCIMBms+Hw4cOoqamBIAh5aF1+yUdCcJ/Ph7GxsVii6WRtSEngkytFUigUCiU/pHLizyeSJIFl2bjaHIZhoFarodPplhUIU9HW2e12mM3mgu+bQiaRyZZhGEQiEVitVtjt9lXVx5IkgeM4lJSU5DSaWKPRwGQy4Xe/+x16enqWzctHnRkoFAqFknO0Wi2mpqbw29/+FvX19TETIMdxCAQCOHjwIJ566in4fL64m6hGo0nJfwm4ooUiwiURKmn0Z3bgeR46nQ5arTaudo/8e6Y+lBzHxZ5RKFpsnU6H/v5+/PznP0dXV5fiCakJHMchGAyis7MTNptt2eupwEehUCiUnCMIAlwuF+rq6jA8PBwTBFiWRSQSQU9PD06cOLHEV4xspIcPH0Z9fT38fj90Ot2i4IFELNTE+Hw+nDhxApWVlUXv08cwDFQqVd6EIIZhMDIygj179qC/v3+RgE6En6GhIWzevBl2uz2j/p6ZmcHevXvR0dFRMMK6IAgwGo2orKyE0WjM2XPJt5arWaQCH4VCoVByDtmsysrKlkTYMgwDrVaL8vLyJYIB+f+VlZU4deoUTCYT2tvbYTQal/UbEwQBMzMz6OjogNFoRH19PY4dO1bUAh8pJ9bV1YX+/v68+M4xDIPR0VHs27cPg4ODSwQ+lmUXCXyZ9LXBYMD+/fvR3t4OjUZTEO4LkiRBrVbHah0X6niiAh+FQqFQig5ScH5mZgZvvvkmLl++DJ1Ol/Q3Op0OY2NjeP311zE7O4tAIACfz5ejFisDx3Hw+XzYuXMnjhw5smwfKEUkEoHH40mYEy4cDsPtdkMUxYyeE41G4fV6EQ6HEQwG4XQ6ZeehUxJBEGC1WlFTUwOPx1OQ6X9SahHLsigpKcGaNWuwZs0alJWVFeRLUSgUCmV1EAgEMDY2BpvNtmz0Lc/zCIVC6O3tjfkGZjNil2EYlJeXo6SkJCumVZVKhWuuuQY8zye8HwmWGB4exsTERN4ikBmGSWpWZFk2bqoW0mckQEeSJEiSBJ1Oh9LS0iXvQ55TXl6OM2fOYMOGDbBarXnX9JGk0ZcuXUJNTQ0ikUjByUcphZM4nU7s378fFy9eRCQSQWlpKb761a9i7dq1sY9EoVAolOKAmKIEQYDf789Y+5JP5PgwkT1Ko9FkfTPmOA4ejwd79+7Ftddei3/913+F3+9P+34Mw2BgYACNjY34yle+gjvvvDOhJosEoBRb7jqWZREKhbBjxw5cf/31ePDBByEIAgRBQE1NDdatWxcLRiBJxIlQp1ar0dfXh+PHj+Nb3/oWbr755ry9B4Hnefj9fly6dAn/9m//VnDpf1IS+MLhMKanpxGNRhEOh7F27VqEQiGl2kahUCgUBVGr1RgeHobBYMC9996L0tLSrBzcSTRsqhoXlmWhVqsz2ihVKhXC4XDOFRAsy8Lr9WLr1q2455578PWvfz1tgY9lWUiShMHBQWzYsAH33HMPPv7xjxe9+flqSIDO9u3bcf/99+O+++6LReCePXt20bVtbW343Oc+FwviIYeV0tLSpMI7x3HgeR7BYDAnY4LUGi5EUhL41qxZg29+85t48MEHIYoiWJbFmjVrivpUSKFQKKsVnU6Hs2fP4ujRo9iwYQPWrFmDSCQi+/fxzGg8z8NkMmFqagqhUEh+2SeWhdvtxszMTFqBByzLwmazwWw2Y926dVCr1TkX+hiGQUlJSdY2fJ7nUVJSIisCWUmUyu1IzLOlpaWxFDuJrIWHDh3Cbbfdhvvuu0/2gYBhGLjdbpjNZtx44415GROFREo6bZ7nsW7dOtx44424+eabccMNN6zKbNoUCoWyEmAYBk6nE7OzswiHwylv6OFweMmBn2VZHDt2DHv37oXFYpG9R6jVakxNTeH111/H4OBgSu0Armj26uvrUVFRAZPJtGL2pkKI9hRFUZHqLaIoIhwOywq68Pv9MJlMsttAooMHBwexfv16mM3mgvOpyzUpvb0kSYhGo4hEIgiHw0VVvodCoVAoS+E4DoIgxAQLjUYTNx3KQliWhcvlwrZt2zAwMLCo4sX+/fuxZcsW9PT0wOfzydbGsCwLu92OkydPwmg0ppy8VhAE9Pf34/z583C5XAXlPyVJElQqFcrLywuqXXLgOA69vb3Yu3cvJiYmsuInSMaL3W7HO++8g/HxcVnfO9UqFgzDwGg0oq6uDi6XK2cJkQuV1S3uUigUCgXAnzRJfX19qK6uRiQSibs5ks3a4XBg+/btuHz5cqzcFsMw2LJlC7q7uwEgZeGGZVlotdq0hCJJkiAIAtRqdcFpclQqFSYmJlBVVVV0Zcd4nkdXVxd27NiB0dHRrJmriQl+w4YNiuauI5U5Cm1M5APaA5QYxJ8il7UAKRSKsrAsC0EQlt3wiCP8sWPH8NRTT8WqUiS7HsAS06lSeeDI2iRHKGAYBoIgJE1nkgyWZaFSqbImJJSWlqKtrQ2/+MUvMDY2BpVKBY1Gk1ZgSyIWfq9sCk48z0Or1caqOWTTqseyLEpLS7N2PwL5/ploU0kfLuzTTO+Zb+jOHgei9l1NwSjkfT0eTyzLfTGdQinFBRlb1CVEWRiGQSAQQCAQgFarhUqlWrbPGYZBMBiE1WrFddddt+wGl4uqApIkweVyweFwyPL3ikajsNlsCIfDaQkUoVAIdrsdpaWlWTsAk34XRRFutxtutzuWTy4b/cdxHFwuF1wuF6LRaMrCaqLrnU4ngCt9ms3vTDTF2YbkJZyfn4fH40n7PtFoFC6XC263G8AVf1W73R7bI4tx7aIavjisRjs/ydZeXV2NhoYGhMPhoj7JUAobMsdW2zzLNSSX2759+zA6OrqkhFk81Go1jEYjtm7diomJCdkaNaXgOA7hcBgnT55EVVXVsqlOOI6D1+vFnj170NTUFMvflsrzDAYD3nnnHRgMhqxFpxILSiAQwMmTJ/Hiiy9i69at8Hq9WRF8tFotOjs7sXv3brjd7pTW72Rzsba2FidOnIDT6cy69UeJccPzPObn53H48GG0tLSk9RyO4+B2u/H++++jo6MDAGAymfDHP/4R58+flzWPCpGUK20QNfRKhAyK0dFR1NXVpZRSoNjhOA5+vx8NDQ1oampaUrCcQiFIkgSe56HT6dIaIyzLoqOjAxcvXoTf71+140wQhFgtUCUZHh5GZWUlxsfHZa3darUabrcbFRUVmJ6ehlqtjis0kbWxtbUV3d3dCIVCimpsmpubUVdXh2AwuOz1Xq8Xhw4dQmtra0r7FRF8jEYjdu7cGQseyRYcxyEQCKC5uRk7duzA7t274ff74z6DmH3lPl+j0WBychJ//OMf4Xa7ZX8LlmXhdDpRU1MDk8kUex7576amJpw9ezZrgTBEOzY+Po6GhoaMklPHgwh81dXVaG9vhyRJaeWDdLvdOHjwYCxi3Gaz4dixY7h48WLRykApzc5AIIDR0VHMzs4q1Z68QhyPT548iV/+8pcFWw9PSUgfUCiJ4HkeNpsNfX198Pl8KS2mZHxt3rwZ27dvh8PhWDHpM1LFZDJhZGQkZiJSCpZlwXFcyvNaEARIkoTZ2VkMDw9DFMVF7ST327RpE3bv3g2Px6PotyTvIQeSNy7dtYxo4+R8F1IZIhVIu+JpzIhAZDAYoNfrU1Y8pKKRJGbVqakpPPbYY+jp6Uloos/WGGVZFtFoFGfOnMGvf/3rmMk0m2T6/RfeYyGZ3jPfpNRyo9GI3//+99izZw8kSSrqF0+GUr4FxQA1s1GWo7S0FKdPn8ZPf/pTjI+Pp63lW81zDACOHTuGp59+GgMDA4qbiNKZ06TcWkVFBX79618jFAolFLhy8S1TXZsyXcvkmrKtVivsdntKPl1Xa9EWQgSi999/Hy+99BLMZnNKGiUiGKfaV7mej0o/Mxt7Wby6v8W8P6bc2wsdIYv5xZOxmgU+CmU5WJaF3++POcWnswgW+sKZi7aJooj5+XnFTKHZQJIkeDyeZQWaQv6WSkE0QFu3bsWhQ4cQjUazZp6XJAlutxsOh2OJZjVRWwjRaBSBQEBWcMvC3+ci+CbeM/PFahyzKfd2rgcFhUIpPPKxQeQKjuMUKSMVj2Low3xvzIUMx3Foa2tDT09P3qJYyXXk2qmpKdTW1mJiYkJWkEU6GsFiJxsm32Jkdb0thUKhJIHjOMzNzWF4eHhVBW0VEsR/rliyBCSq/ZptEuUhdLvdGB0dhc1mA3Al6HDHjh3o6+tb1rdQkiRYrVYMDg6uqkC9UCiEvr4+2O32fDclp6yOr0uhxGE1nvAoySkrK8Pu3bvx+OOPw2Kx0CTkeSAajcLtdsPn82V8r0L0LUwXj8cDj8cTyw9Lntnd3Y1f/epXaGpqAnBFiAuFQsvmkeU4DpFIBFVVVXjsscdgtVqLNvo0EfECfTiOg8lkwg9/+EM0Nzfn3J84W9rUdNpNVzPKqjTZSJKEYDC4qoMHKEthGAY+n092gl9KdlGpVLBYLHj11Vfh9/txxx13ZKTpC4VCRf8dicZz48aNCAaD+Ou//utFglkoFILT6UQ4HI79LRWhwu/3w+l0rkhtdjgcjpvGJxqNYn5+ftkUP0qQrX0nHA4v+uZyoDsdBZIkraqqIoIgwOl0Ytu2bejq6oIoilToo8TgOA6CIKzIDVApsqXlYlkWwWAQExMTMJlMGZlKdTodGhoasGfPHvh8vqIxEceDYRjo9Xro9XoEg8El6XEySYfDcZzsFDTFAsdxCIVCaGpqwt69exGJRBZ9f1ImLZfrPsnt9/bbb+Py5ctpzxme5+F2u1FdXY3KysrYvWX9NuWnUVYMZLDNzs5ienoaN91006oQfHieh8fjwaFDh6DT6XDvvfeuqMWOQsk1oigWXKkpjUYDvV6P48eP43Of+xzKy8vz3aSMKKTI9kIP2uI4DsFgEBcuXAAAfOQjH8n73kasB3v27MGNN96I+++/P63+I1WxLl26lHpC6ZSfRlkxkEl74cIFPPvss5ifny/oSZxNRFGEz+dLWSVOWV0U03zIZ1sbGxsxPT0dtw35ahdJYOz3+5cIo4UusFwNMQGmmuRcifdjmCu1lr1eLyKRSEH3YSQSQSQSyflzE7lJSZKU0b5D7itJEiKRSMr3oRo+CrxeL2ZnZ4ve1yUViF9Mvk99lMJlYXLcQtNexSPRxpuLDXloaAhWqzVhhQalEyAnI5EpV25iZTnfX2nt28L7y2233GtTpaSkBMePH8f58+cRDofx8MMPZ/0Z6VIoWtBE7Vi478gdW3LvLQcq8FHAcRzUanVBTBQKpRAQBAFGoxH19fUoKSnBd77zHYRCoYIU/FiWRTgcxttvv41bbrkFJSUli4ScXGiyRFGM6wfscDjwwgsvgGVZ/Mu//EvKZbRIvrRst1+v1+MPf/gDZmdncd999yW8jvSdHIEv2/1M7hkKhfD0009jaGgIX/jCF2T5l87NzWHz5s0Ih8P493//96yOXY7j4HQ64XQ6UVJSUlCHZjJe8gWplXz8+HEIgoDHH38carUa0Wh0Sb5D8n3l+s+rVCqcPXsWv/vd7zAzM5NW+wrnS1EolLRQalPMJYWWIoc4Rp87dw6XLl0q6PQsZNNobGxEd3d3rAQaz/Po6upCY2MjXC4X1Gq14qWsrsbn8+HixYvo6+tLqw/n5uawf//+hNrDdLHZbGhuboZer48rqBGn/6qqKnz44YcJkyoT5//Ozk40NDTAbrcnfc9UE/4yDANRFFFbW4vx8XEMDQ2hrq4Oc3NzSQM1/H4/WltbFRm7CwXHQgmEWZiiprKyMiUzbjYTT5PDwdDQEE6fPr0oWESv1+PQoUOx+uG9vb2oq6uD1WqNfaNkAisJ3GlsbITT6Uz6Pgn/LYN3KwoKRcVLWV0sN+6yGdXo9XoxPj6O+fn5ohzrLMtifHwcBoMBkiQteQc5ZaWUeu9EmqtCZGFbiemovr4eR44cwdzcHMbHxxXNLZjsG0xPT8NgMCQVnOIxOzuLjRs3Ym5uLmMNWirjhOM4+P1+vPfeezh37tySKM+FqNVq9Pf348CBAzCZTAkFMXLP8fFxWK3WWJtS4dKlS6ioqJBVX7eYxm6mEL+2lpYWfPDBB7Lck8h4sFqtmJiYQCAQyOqBaOFclCQJfX19ePfdd+F0OqFWq9He3o49e/Zgbm4OKpUKDMPA5XJhbGwMHo8n7nhbrrxhJBLB3NxcQt++FS3wSZIEnuehUqliA4JCyQXJzORkM84klQJBq9VidHQUb7zxBs6ePVt0mj6iIdm0aRN27969KNu/JEmxfuQ4Lu785TgOWq0WGo1GEW1DMeVpvLqtPM/D6XTC7XbDZrNh06ZNOHHiBHQ6nSLPJ75J8b7T0aNHsXHjRni93iXfKVke0OU2MLmQ1CVyxwjDMIhGo3A4HHC73ctutNFoFHa7PamGRq1WY2ZmBps2bcKpU6div02FQCAgu75uMY3dbOFyuZJqvxZC+q+2thabNm2CwWCAWq3OWluu7nufzwej0Rj7dh6PB1arNbbmCYKAnp4evPbaa+jq6oJWq03Y5njwPI/5+XlUV1fjz//8z3H99dcDWCwkrtjRwDAMtFotdu/ejVdeeQXT09NZ/ZgUSjzIJK+srMQTTzyx5NRIfDy2bduGN998Ey6XK23BT5IkqFQqhMNhDAwMwGg0yt5AGIaBTqfLitCZKSzLor+/H6Ojo4s2Mp1Oh9bWVjz99NPo6OhYNH/J6bytrQ2PPPIIvve97+HcuXNxNYSrEVEUMTMzA7/fD57nEY1GMTExgZmZGcXMcPv27YNer4dGo1nyb0ajEX19fXGjOh0OBxoaGhKabYn2I13UajUmJibw4osv4siRI7J/R54pt796e3vxzDPPoKurK65QvVDDZ7FYZLdDKRiGgUajWVH7Yjra65mZGfT39yueq5HjuEVa2avzfbIsC7vdjt7e3kVmXrkwDAO/3w+j0Yj77rsP11577ZJrVqzAB1xxvCY+LA6Ho6D9cFYTRKtztUmC5/m0gkdYloVarS6I70va3tfXh6qqKoTD4UXvQxzsOzo60NLSgmAwmPYio9PpcOnSJWzbtg1ut1t23zEMA6/Xi7fffjuWyynfQpJWq41p8sh/q1QqTExMoL6+HlNTU4u+L2nz5OQkqorU2cAAACAASURBVKqqcODAAUxMTMT+bTVDTDtnzpzBzMzMonmmZOmsnp4e2Gy2hPNQq9XG/TbBYBDDw8PweDyKfDui+Thz5gz0en3W7nm1T6TZbEZbW1tCc2shWZhILrdjx47hxIkTsaACJUi03hcKKpUKJSUl0Ol0ebcE8jwPrVYLnufTagcR4ktKSuLOQ8UEvmw6QqaLJEnQarUoLS1NaBKi5BYi8AwODuLixYuQJCk2yaanp9Ha2pqSLwXHcbDb7bhw4UJetbgsyy7KVq/RaFBeXp7QpKvT6VBSUpJRyg+NRoPe3l7s378fFotFdp8Rv7+tW7eip6cn9rd8w3EcLBYLOjo6YDAYwDAMVCoVysrKoFKp4vYT2UTWrFmzZEMptECQXCJJEmZnZ+H1enPWB5lsVEoGlBDXgNLS0ozvRQ4aU1NTuHDhAhwOR8q+VoUAEfiqq6tRX18f66NsQ9b7oaEhXLhwoeA08OR7zs/Po6mpKakPplLPj5ceLNOUYdFoNO4YVGwl8Hq9mJ+fX6LhoKxuiFnjxIkT2LlzJ0RRBM/zEEURHR0d2LhxYyyKSQ6CIGBychLbt2/HsWPHlpQdygUsy8Ln88FqteYsyackSfB6vTCbzQCQsnM2+X0hJZ4WBAEjIyPYtm0bOjs70/6ORIien5+Hx+Mp+M1XKXJdOmo1QPwNz58/j+3bt2NycrKoTaKBQAChUEix+5P1vra2Fnv27CnIMpYsy2JychJvvvkm+vv74/rOKUU4HIbFYoHP54utd6IowmazwePxZP15Kfc80U4k014wDIPTp09j27ZtmJubK+oJQckuxNxkMBgwOjoaO/FJkgSr1YqBgQGEQqEli8I111yzxC+GaHBVKhUGBwexfft27N27N6HpSCl0Oh1aWlqwYcMGmM1mxTXbHMchEolg//792LNnD4D0NHSFlniaRKmNjIzEohjTgZRVevvtt3Hy5MlFZvPS0lKUlpbm3XSzGlGr1SgvLy8Iv9FMYBgGFosFIyMjWdeg8jyf0z7KxlpFDpvl5eVL+mLhem80GgtOw0fwer2YnJyMuX7lwirIsiymp6fxhz/8AYODg9DpdOA4Di6XC++88w6qq6uz/8xUfxAMBlFfX48dO3ZAEIQlA5MIfH19fTh16hTm5+cLwreKUjgQn46rDwI8z0Oj0SxaEEgE3Ouvv46GhoaYCRi4YtJsbW3Frl27MDMzg9HRUZw9ezbnG4ogCBgcHERVVRVcLpfiQhTpk3PnzqGrq0vRZ+Ua4sOXyZpBzEh1dXW4fPlyLKUGx3E4cOAADh48mJIWmXJlbpaVlWU0tru6urB161aMjIxksWXKo9FooNPpFq1L8Xz44sGybOygmkh4IEoUnU4Hg8GAl19+GaOjo0VT+q2kpASdnZ3YsmULHA4HACxZw5WeayzLQqvVpq2dI9/x2muvRUtLCyoqKmCxWBT1OyQpYZqammCxWGI+2IFAAOfOnUN/f3/WnylrVSW+NKFQCOFwGK2trZicnMRHPvIR/M3f/A3UavWSwaxWq2MZ3+lJmkJS5Gg0mpQ2DZJ49I033sDDDz+Mhx56aJGfXEtLC7Zu3Rq7npwyM/GNSweVShXTHOWKXJoeig2GYVBSUhJbREm6jAMHDgAA7rnnHtxwww15qbNZbDAMg9nZWRw5cgROpzNtIaS/vx/vvvsuPv7xj+MTn/hElluZfch7dnV1obm5GXfeeWfK89vpdKKjowO33HJLXKGHZdnYBq9SqeB0OvHSSy/hjjvuyLqwR/zFkt1XrVanLJyVlpaipaUF+/fvB7DY2sCyLFQqlaJKH47j4PF4cO7cOZw/fz6je505cwbnzp0Dx3H48Y9/rLigutBvkuxXSgr5SUcvacAtt9yCT33qU4s+ZCAQQFNTE1wuV1GcQij5haiqBwYG4PV6U/79mjVrlgg4kiRBo9GgrKws9jeTyYSxsbG8+PLJZTUHE+SbkpKSWDmoQjiIEkG0UMcD8VkbGhrCSy+9FEuAnC5lZWVxN9FkufhyDQk4JJvx8ePHsXv3bjidTvA8n9L3slgs2LVrF2pqauK6NpGKLhUVFThy5AhEUcTatWuzLmgQ0+rs7CzGx8fjXiOKIvR6PUwmU0rfQ5KkuO/GsmwsDY3JZJLdzlTNzCQKm/RhOpB33bhxI5qbm2OuQkqtEfma88sKfAzD4FOf+hT+8z//c5E0euONN+LLX/4y1qxZUxALJ6Ww0Wq1GBwcxBtvvIGJiQnFUoG0t7dj06ZNsNvtBbOBXE0wGKSaJQqAK9F0xTAegsEgnE5nLMgn23NXFMWCCSCKRCIIBoOxfc3j8cBut8eqhASDQYTDYVn7nsfjgdlsTqgZJRYMu90Oh8OhmI8bCZ6orq7GBx98AGCp328kEsH27dtRW1sLt9ud8frJ8zzMZjM++OADNDU1AVh+3JD5IKdSBoEIs/Pz8/D7/Rm1eX5+HsFgMKN7yIFYS3NNUj0rGdC33nor7r333kUDYN26dXjooYfA87yiUT6U7EJSJ6RaxDxTBEGAyWTCmTNn8IUvfEEx7ZvJZMLZs2fx7W9/GyzLprRwKA3p9/fffx9dXV346Ec/WrBC6UqBpGViWbYgharp6WkcOHAAo6OjSa8j+bVyOXdZlkVpaWksCGo5YYTneaxZsyYt7dTc3BxaW1vxZ3/2Z1lfG0hqn+XaxbIsgsEgurq6UFFRsWjjJxoZlmVRW1sbi3JPZKrUaDSYmJjA/v37MT4+jr/9279N+uyFGkUlYFkWoVAIfX190Ov1cb+lJEno7OwEy7K48cYbZVesSATDMHC73Whvb8fk5GTsb8mun56eRnNzM2ZmZlJ+1nL9R3wlc513dGEaLtLGw4cPw+PxZCygpoosw3okElki1ImimFHS2NUK8Wkg/ZergUdOkl1dXZifn1/kC5cLSJ6nVH340uHqwI9CgWzW7777LmZnZxXx06FcgQgoJPH6Zz/72azkYcs2BoMBBw8eTHoN2az7+/vhcrnwwAMPJPSNVqlUsTmWTAO1MOt/ouvcbjcaGxsxNTUlS5tlsVhQWVmJ6enpZa+9GqPRiMbGRnzsYx9bMidI1aR0zZx6vR719fUwGAxJryOHgpaWFrz//vtL/p0ICidPngQA/OVf/mXCiFqNRoPLly9j165d8Pv9ijj/k2+i1WplramJguWupqOjI2ttKy0tlV3Kj2EYTExMYOPGjZidnc24DVffOxwOo729HdFoNCf7EHluJBLBpUuX0NLSEpOjjh07tuRatVqteLtke1KKopg3TR5xNpUkqSBP6XLheR7BYBCTk5MQBAE33XRTzopbk/JK+/btQ1tbGxoaGnIe2ED5UzABRVlYloUoiqisrITNZsNdd92FdevW5btZacHzPBwOB/bt24fu7m4cPHgQKpVq0VpIhKSZmRkMDg4uWybK7XbDbDbj1ltvTailslgseP3112W3c3R0FL/85S9lX381iQSRcDiM3t5ezM3NyVqvSF1SsnG2tLSgpaVFdjtUKhUEQVjW5Obz+dDd3R3LhbkQSZIgCAJ0Oh38fn/SCF1S6z1VeJ6H3W5P2y9aSXieh8fjQXd3N1wul+zfcRynyPrI8zx8Ph92796NYDCIH/3oRzmJ0id7/q5du/Dee+8l3e8nJycRDofh8/mUa4+ci4hT5vXXX5/T5LLAn1JQuFwucBynWOFvpSGS/uXLl1FRUYG7774b//M//5MTlS4R7EZHRzE8PJzwtJlOGgCiSShWwXE1FhhXAqL9yNUBJh5Xj18yJoslvcVyJDNbkferr69HS0sLTCYT7r333oTfY3x8HDt37sSXvvSlgo/2drvdWL9+PRwOx7JCGElrYbVaFV9bDQYDnn/++Yzq4obDYZjNZgQCgZR/q9Vq0djYiLfffjstraqSaLVaDAwM4LnnnksYJJJrSCBKXoIl/v9zk62PR44cgUqlgtFoVK4dci4KBoO444478OMf/xi33norgNyVjiGn28OHD6OpqakgM3XLQaPRYGBgADt27EBdXR0sFkvOzOHkJLhr1y7U1dUlTExcrEJbJhSzsFpIFEIfJtOirATk+B5ZrVZMTU0hHA4nXSe9Xi9GR0dhMpkKfj2NRCIYHR2F1WpddpzxPI+RkRHs3btXkTxmCwkEAhgeHsb8/Hza9zCbzdi2bRsGBgYApJZAnWVZGI1G6PX6gvOj5zgOTqcTAwMDOfdTS0au/fdSee7c3BwmJycVDRqRNbpCoRBuuukmfOMb38DNN9+c8kNUKlXaPgw8z8PlcqGurg7t7e1xnU2JU2QhJ3hWqVQYGRnB8ePHYTAYoFKpcjbwSLTU4OAggKUbIOnj+vp6TE5OyjabuN1u1NbWJtUaKsVCn8B0+pH4RXV2dqKjoyNudY+rIeNMyXD9YkWv16OmpgaBQCAvC2owGER7ezu6uroQiUQKXojJN4WeDiZdeJ7HxMQE6uvrMTY2Jus3xPSaj3Frt9tx9OjRhIEUy0FSyCQik703U+QEUixkof9psbAwmKoYSKlnExXkXY6RkREYDIa0Q86TLU7EGbO3txc2my3le+eS5SankiTLq6RWqzE3N4cXXngB58+fX1TNIhGCIMBut+OZZ57ByZMnl/W7YFk2q5OC53lMT09Dr9enFYnLcRwCgQD27NmD9957D+FwOKlPB8MwMcf52dnZopngSkNMFU1NTfjVr34Fj8eTlwU7EAhg69atqKioQCgUosFkCVgN1UVSHX8WiwW9vb2IRCJ50wYrMWckSYLBYCiayiazs7MYHR1Ny7ydD8gaMzU1henp6aKwJKQ0yuQKe0Q4Ix3wxBNPYMeOHRmZYxOpRFmWhc1mw49+9COcOnUqro0+nWSOSpHPNmTr2QzDwOv1wmKxIBgMytKMhUIhuFyurGjGSODDyy+/jPXr12fs5Orz+WA0GpMu+BzHwWKx4LHHHsPevXtRXl6e0TPlUkhjNxmFkDh3pfjqKYnVaoXb7S7YmqaZkK7Gsr6+Hj/5yU+yknuukBBFEbt378aTTz4JoPBdG/bt24dnnnmmIPwRk627RHHDsiz6+/vx7LPP4rXXXlsUKFSoKNK6QCCwyKfA6XTC4/EAUGbQkcSViU4G0WgUgUAgrznZ8uU7kCrLtZFMhI6ODrz11luYmJhYNpBGpVJhamoKp0+fztopmuR4AtL3HyPt6OzsxCuvvAKr1ZpQA0ICEhwOh6JRVFezcOwW8vgpBIGvWOZYPtm7dy/27NmzbBRvPsj0+12976TC/Px8zKE+W+uT0mNR7jMyKYenFCTzxkL8fj/cbndO9+lEfZhMZgiFQgiFQujt7cXGjRtx6tQp+P3+guvjeGR1hSbRoPX19ejo6Ihpf3IRGZNIGuc4DpOTk6ipqcHY2NiyOYiUYiVtRhzHYWZmBh0dHRBFcVnzJsdxcDgcGBsbgyiKWeuLTMcUaYPRaERLSwu8Xu+ym2AutUg8zy8au/nyxaGsHMbGxnDx4sW8mi8TkemhoaamBm1tbWlFimd7f8rFAUjuWpTvg1g8RFHMmsUnExLtRWNjY6ipqYkljCZEIhG0tbVhy5Yt2LlzJ+rr62EymYrGxSerrSSJK/fs2YNTp07hr/7qr/LeEYIgYHBwEDabDffddx/+4i/+IielUxbCcRymp6cxMjKSk4WWqJyj0ahiaTLSiW7N9+RORr7bRubJwpRHgiBgYGAAu3btwg9+8APcf//9io1dkpRVyTGzkiEmnkgkktWxdHVOuWyQLJqZ5/m8rdkmkwl9fX1pa3h27doFSZLS/n02339mZgbl5eWKpjAbGRmB2+1Oa76S+Z5rYZAk0fb7/di/f39OrSVXt0OSJIyNjcFisSwZM/39/RgcHFzSt+FwGHV1dTh58iSi0WhBVXKSgyIzOxQK5WXTIIvu1c8mVS3y9XHKysrw2muv4eWXX0YwGFR0QSX+cqFQCGq1WjGtUDpaukLTKCwk321zu91gGAZqtXpRW+LVllQiwjISicDj8cTGTDaFFlIVYiULkn6/H+FwWHbVAzmQuZyJqTLRfeMRjUbhdruXLd2mlMXm6NGjqKmpSVsIyFS4Iu9P3I8yYefOnbH6tUoFyjz33HOQJCnlQyDJbetwOHKu/IhGo3A6nZAkCePj41nz6U7Vz5koRF555RVIkhS3klii9UquoEfalem6l2q0czIUEe/z5RtCilrHI5+O7wzDwOfzIRAIKK5JUqlU6O7uxq9//WtUVVWtejNgIfiWJYMsCL///e+xdetWuFyuRRtEvMWMHGCyUXybaDXGxsbws5/9DI2NjSgrK8v4vgvJVlsLEY7jEIlEUFtbi8ceeww2my1rc66kpARdXV347//+b1y+fHnROMi2a4FKpYLFYsFrr72GTZs2Jb02HA4r8j1DoRC8Xm9etO0qlQo2mw3r16/Hjh07Mn6/YDAIn8+X0rukeoj2+/1pRbSq1WrMzMzg5z//ORobGxXp70TvYjKZ8Nhjj6GmpiZjBQxZ2+MdiuUSCAQQDAYV6QNRFBEIBDIW+Mh6n40Dc3EYnpeBbOgHDx7Etddeiy9+8Ys5i6KUS66EYJZlYyVturu7sWbNGjz88MN512Dli0JPrEy+i16vRzgcXjY4QxAEGAwGHD16FM3NzVlrh9frRV9fH+x2e9bGKqkdvHv3btx111146KGHoNPpCvp7pIvZbMbAwICsfI5y4TgOLpcLfX19S7ROoihm3XQcCoUwMTEBk8mU8LpQKISamhoIglBw5bwygbz/+Ph41uu4yiVXaxXRPA4MDMDpdCryjETvIooiOjo6EIlEMk6/IkkSVCoV9Ho93nvvPQwNDWV0v2wzMTGB119/Hd/+9rczWhOMRiP27t2Lm2++OeMYhLyoPrJtEiAbZFtbG9ra2hAIBApaq6M0LMsiHA6jp6cHra2tWRf2chGEk+kziI/G6OgoWlpaYsEihYpcjY0gCLBaraitrc1KJQHSz+S0nM0+YlkWwWAQx48fR09Pz4pOiKyUJvnq78JxHHw+H1paWjA9PZ319CrL3SsUCqG1tRWNjY1Fky9NDqSf8zU+o9EoJiYm0NrampM8kkpaPiRJwvDwMFpbW+NqpUKhEC5cuJC2OZlhrpQpvXTpEnp7ezE/P48TJ07IzjeYK6uPxWLBvn37YLVaMwpUdDgcqKurQ3d3d8YCX841fCS1hSAIKCkpyapfTzQaLbgSM/mADK54vgnZgPj5KOGTRdrtdDoRDofTrp1MJjRxsP30pz8NnucLVruUyoaTDVMBGSPEZ0lJgTgQCKxYky4hkwWd5JX0eDxxNSML7ysIAubn57F+/Xp84xvfwNe+9rWsbF6pjL9c1lLPFZFIBA6HI2/7RzQaRVNTE86fPw8AOQmcUWq+S5KEmpoaNDQ0JPWDSxeO4xAKhbBv377YeE1lfQkEAnA4HIr7FEuSBJ/Pl/FzJEnKmh9vVkaVnIFDfIUsFgt++ctf4jOf+QyeeOIJuFyubDQhRi5PaEQ4Sfe3udA4ZbM/SLWM9evXY+fOnYpUNiGT+amnnsKdd96J7373uxkVd3e73TCZTDFNSCFr+Uj75OZCzASiNXrzzTcRCARw//33K+JcrkSAyUpDp9PhN7/5DUwmExobG5NeS7QbJpMp6ybVQp8fSjI8PIxHH30UFosl4TVK9o0kSfD7/fD7/SgrK8v6s3L9XZU290uSlHJwDQnoPH36NC5cuACDwaBQ6/4Ez/NZ6XuO47ISh5AVgU/uYs4wV8qgDQwM4Lbbbiu4xJ+pQE7D6Zaby2eZtUxgGAYTExOYm5tL+XdyryMmAZVKlVHCYZJ6gNQtZlm2IDV8ZCzV1taC53k8+uijuP3223PybKPRiMnJSXzyk59UZJMphioh+YbjOHz0ox9FaWkpTp06tez1DMNApVJlbf3QarXo7+/H+vXrMTU1lZV7FhuBQCBp7V2yXudiLCvhgkPn4Z+w2WywWq35bkbKZENmyOjYTXzFmpub0djYKLvMllarLdroUTJpxsbGsH///qTVGRIhiiKam5tx/PjxoiwHlciPIJE2h+M48DyfkpaHjJF0+4bneczNzeHSpUtQq9UxP4iLFy/KqhWcD8bHx3H27Fk4HI6c5kK7OhVMphDh2mQyoaKiAnNzc4u0R4Wk8VtYBjJfBzBisgkEAnlZC0gAxtmzZzExMaHos/LZz5kwNjaGffv2JdUAFipkrzKZTEW31yhBvnMDp0M0GkVjYyNqamoyuk9Gqy7HcQgGg6itrUV1dTUCgUBRdmYqkAkzNDSELVu2wGQypSy8RqNRtLW1oaKiIu2TVyGaX9xuN0ZHR2GxWBYlou3v78fhw4fR29ubs/FByrm1trZCo9HAZrPh4MGDaG1tBRBfK10I/VnoUcVyYVkWs7Oz2LRpEwwGQ2ycR6NRDAwMwGw253UME6F0bGwM09PTcLlcGB0dxfz8fFEKJKmwsN9z/Q18Ph9GR0fhdruLqp+Hh4exdetWGI3GfDclZSYnJ7Fly5bYPKQUH9FoFDU1Ndi/f39G98l49yVBGOFwuCi1VekSCARgNpsRDofTeudgMJiRDxzP8xBFsaAyfY+MjOCDDz7A5z//eXz7299GOBzG7Ows3n33XRw4cABOpxM33XRTTtrCMAyCwSA8Hk/M78lut8PlcsX8Sa/+bqlqIZVgJc2hUCgEk8kUc/In+Sife+45dHV14bbbbsvruwqCgC1btmDt2rV46KGHcOTIETz88MMZ+YwWAws18bl2LTEYDHj77bdxyy23FFU/k2T2xUg0GoXZbEYkEqECX5GSjs9iPDLe3YgzYWtrK5588knMzc2lFTqs0Wig1WplazdIVQKNRpOXTYNl2YxMjgDScpJnWRY+nw//+7//G1Pv5ltIIZCcYUajMSY8+f1+jIyM5NxngmVZqNXq2AJH/J5UKhUuXryIn/70p4vyjdlsNvz85z/H+fPnV5TQlU/IHCEQwbu7uzsWrJXPfmZZFkNDQ9Dr9bDb7RgYGIiN3ZVMXV0dXnrpJXR1dWHz5s34wx/+kLNnBwIBDA4OYnp6mgofOUStVsPj8WBycrIgrUOUzCE+68nmVcaSAnGyn5mZQVVVFdxud0oLJslUf/jwYezdu3dZfyKO41BSUoJIJIITJ07g0KFDsorerxQY5kq5pePHj2NwcDD2N+DKKUAQBKjV6rwIgRzHQavVQhCEmODOsiw0Gk1O28HzPMxmMzo7O2O1ixf+x2Aw4MSJE4siyfx+P06ePEkXRIVhGCbtVDtKoNFooFarwfP8krFbiMTTTjMMA41GI3sNnJiYQEdHB8xmMy5fvoyuri6lmhsXjUaT9fJ9lORwHIepqSmcPXsWQGG4r1CyB8uyCAQC6OnpwdTUVML8nFk9ypaXl6ccCUkid6urq+HxePCtb30rbk4dstDNz8/j4sWLuOWWW3D69Gk4nU7cdtttK/5UvhCGYVBeXr5EkyoIAkZGRtDR0QGHw5Gn1uUfQRBgsVjQ09MDURSXCL9EKL468efVGqlExNtYV8uBY7VAUhAVivYc+FMia71eD7/fH1sTQ6EQzp49m3LkPGX1QKwtdrs9302hKADHcQgEApiYmMDMzEzCvKoFs5qFQqGkmbclSYLb7UZbWxteeuklzM7OIhqNIhwO05Pi/0etVuPMmTN47733itK5OJuIoqhIgliGYWCz2eByuWLjzu12w2q1UlPwCoH4GlosFvh8voL5phzHwe12o7m5OXagCwQC6O/vx4svvojh4eFF1/M8n7U8YJTiJhwOr6hSeJSlSJKESCSSNNFzwajFiC9gon8LhUI4efIkLly4gPHx8Vj5Ga1WizVr1iyrYWFZFqWlpTENZCp54Yipx+12p/xe2UYQhNj7Xi3osiwLo9GIsbGxVS8EK1U+R6fTob6+HnfffTf+4z/+AzzPY//+/Th69ChKS0tTvh/LstDpdAWTpiidd1hpaLVa6PX6WGTjnXfeme8mAfiTNYQEi5G6pNu2bUNbW9uS62dmZhCJRFZ8lRPK8kxNTaG+vh5A4fh8U7LPckqHghH4kkGcvUdHRwEA1113XSzgobu7G6+99lrSgt8sy8Lr9WLXrl0oKSnBgw8+KKsOJMkz2NLSgtHRUXz9619HaWmp4iVZCGq1elGRckmSMDAwgEOHDsFkMsUNjiHmSjnvRwJf4vlUcRyH0tJSuN3uFVlKKV3UajXGxsbQ2NiIRx55BCzLorW1FYODg/jMZz6T0r1YloXT6cTBgwfR29sLIL++NTzPY9++fbjuuutilTdEUYwVKVepVGnXvywmBEGAw+FAe3s7gNyZ6yVJAs/zKCkpSRjQRcy45OCq1+tx4sSJuNf29vZCkqRV8c0oyXE4HKvazYdyBVmiPlnwFgYDkCjIXG1QVzspk2CRnp4e7Ny5M2EUKElB4PP5cPjwYZw4cUJ2OgCiWTxz5gzeeust+P1+WYu/Wq3OSGPDMAxEUUR/fz9qamoQCARiecz6+/vx6quvwmazZRQMQfyBLly4gDNnzix5/vz8PI4cOYK5uTmoVKq0vjXHcYsiZXMFea4Sfp1Ec6rT6WL9QcZTqlpVIvC99NJLMXNcvvPSVVVVobKyEtFoNDbXVSoVxsfH0dDQkNVyRDzP53QNIX55y7HwO+ZSGyIIAmZnZ9HQ0IDx8XFZ/aJSqRJqZX0+H/x+/6rX9hcCZA0tBDiOy1t2C0p+kbWa2e12DA8PY3h4GD6fDwDg8XgwPDyct9MjOeWmKlhdrc1KZkoG/mTSXbNmjawJwjAMRkZGMDk5mZLp+Oo2RSIRNDU14Y033oDX641tVCqVCtdccw2A1AWMhfA8D6/Xi8rKSuzcuXPJ841GI5577jkMDg7GzMRyKqkQGIaBw+HAyMgI5ufnF/1d6UoLLpcLIyMjitT6zTYsy2Lt2rVZvV+mgm5JScmi/6/VatHZ2YnNmzejv78/o3svxGKxYGRkBD6fMzJIQQAAIABJREFUL6VxlY5fmiiKGB0djfm2ZmOzW6htywYajQazs7PYvHkzurq66Ia8QpAkCVNTU0t8LPOF3W5Hb29v0eYVpKRP0pWKLGQDAwPYsmUL/vjHP8YWzJmZGRw8eBDz8/M59wmQJAk+ny8rvimkpFE2IBvA9u3bcfToUUQikbT7hryjzWZTzIQsSRJcLldcZ95wOAybzYZAIICGhgbs3r0bNptNdu5AhmEwMDCAbdu2xcyVwJWN1+/3K7rYDA0NYdu2bbh06ZJizyhUwuEwfD5fVrU6DMPA7/djfn4+qwe8CxcuYPv27ZiYmJCl/SCVOnw+X0pzgiThfuONN9DZ2QkgO5o7URSztg4BfxJCbTYb/H5/Vu5JyT+iKOLYsWPYunVrvpsC4Iob1KuvvkpNvKuQpKoAsmlcc801uOuuu1BSUhIzI+p0Otxxxx2xfEq5PI16vV68//77GBoaWlJpQqPRoKysTFYQRygUQm1tLdxuN7773e/G3leSJHAchzVr1sjeWNRqNdRqNaLRKC5cuICPfvSjCUOj5SJHW6NWq6HVamP5DxeaGuWQqJ9IEkfgSgWNoaEh8DwfN1gkESaTCe3t7Ys0bVarFYcOHYLBYMC6desUGTd2u13x9ANqtRpr166N+UzGg9TsLS0tRSgUUtS0Rpx1Ozs70d7eju9///vQ6XQZHRZYlkVZWdmiWrPZ0owBgNFoxMWLFxGNRmUlXRcEAYODg2hsbMTXvvY13HLLLbKfF41G0draGtM2p6t512g0iEQiiEajMBqNOHLkCO69994la6BWqwXHcfD7/bFckHIptHQwlMwg2uVCwWw2w2w257sZOYVl2bipzFYbSVcVsgB/4hOfwI9//GN885vfxLp16wAAt99+O77zne/gIx/5SKz+J8uyKCkpSTnxslarTSkRp8/nw969e9HV1bVE4Ovr60NDQwPsdnvSzVgQBAiCgLq6OlRUVCwyEwmCAKfTicrKSkxNTSVsB8MwMQfrwcFBNDQ0wGKxJHW6ziZarRaTk5M4ffo0/H4/urq60NHRkdUgCyL4WSwWHDt2DFarVfa7EV+6hVitVhw7dgwXL16M3b8Q4TgOOp0OPM/HHZejo6OoqKjA7t27YwmwFyaeBq5s3G63G2fOnEFXV9eiSPFsw7IstFotLl++jM2bNyMQCCTsW3IwSNQOlUoFnU4Xq5P94YcfKrZQ+nw+VFVVydLysSyLvr4+bN68GQaDQXYaHPItM0n4zLIs5ufncerUKfT29kKn0yEQCGDLli3o6emJCXykPd3d3Th9+jRcLldsPSTJnWnORkoxQjIKLFz/ictTrpPrp4rX60VVVRWGhoZyFnRZiMiSzCKRSGzTu/vuuzE5OYloNAq/3x/rPIZhEAgE0NnZGQugID52yTY4t9uNkZERTE1Noby8PNP3QUNDA2ZmZnD77bcjEAhAr9fH3bA9Hg/0ej2MRuMSp2etVou5uTk8/vjjePnll2PvtxCSIuHixYv42Mc+hlOnTuHo0aN49tlnUwoKIZGPZPNKxTw0NjaGy5cvo7GxEY8++iiOHDkSC73PFiRSuKenBx0dHXjggQcSbpyCIIBl2ZwIu0rCMAxcLhcmJydx0003xfWxa2lpQUtLy6K/ORwO9Pb2oqSkJFbKzWQyYf369bj77rtx5513oqurK2ZCJ98/G0JvKBTCyMgIAoHAskKl1WrFhx9+mLA24+TkJEZGRqBSqfD000/ji1/8Ih588MGM2xiPmZkZ/OpXvwIA/P3f//2y15Mo1mQpnK6OJnY4HOjq6oqVc0sHnucxNTWFF198EZ/73Odw++23o7u7e8nzSPTswYMH0d3djRdffBHXXXcd/H4/LBYLent7F/m0LsfVPsq5rn1LoRD8fj8uXbqE2dnZ2N8ikQj6+/szmlu5wGaz4be//W2+m5F3ZKviQqEQrr/+evzXf/0XOI7D2NjYIkmZZVnY7Xb85je/iamLQ6EQjEZjLCt8PCYnJ/HWW2/h7Nmz+PrXv57h61yBlEt66623cPTo0SVaQACYnp7G5s2bcebMGXz1q19d9G9EQCTCztWbJ1l0fT4fnn/++ZhJlaSukIvX64XJZIJGo0EgEIAoikuE3nimNPK/33vvPUSjUbjdbrzyyitZN2NKkgSz2QyXy7UkHcTVbQwGgzGfP6vVqnjCWqWSHBMtzejoKF544QX87Gc/w5e//OVFQnkiRkZG8Oabb+KnP/1pTKtDBD+1Wo3BwUE89dRTsQXT5/PBZDJlxQfM4XDggw8+QDAYxI033hi3nSSy/dKlS3jhhRcSVmaoqqqCTqfDI488gtLS0oRaThLZm63vkGl0LCkwbjKZYqZoAOjv78ezzz67aKNKBMuyCZ9N0hipVCp0dXXht7/9LVwuV9zrOY6DIAiLrAbt7e144403MDQ0lLQNpF+DweCSBOrBYBAej6foI2+T9TOlMLFYLHjhhRcW+f75/X688847NHVXkSBb4BNFERqNBnfccQduuOGGRcl9ySa5MFceABgMBrz77rvQ6/X4whe+EPe+Pp8P4+PjALKbAoH4TSTSYvj9foyPj8dM0fEg6VGuVgGT3GTRaBQmkwnbtm1DIBCIbX5yVcaDg4PYvn07vvzlL6Ovrw8ulws/+MEPFm2g5DkLF3jy7wtTZJA+zBYkJc3evXtht9sRDocTau7UajW6u7tx4MABjI+Po7q6Gg888ICiof/xvku2YBgGXq8XQ0NDMZMcEciTbbThcBh6vR7z8/OL3puMC7fbjcHBwZhvZ19fH959992EKYVSIRKJxAS4m266KeF7SZIEp9OJ4eHhhO/idDoxMTGxKB1QPMg3UEL4iHdIk/ObCxcuYMeOHfjhD38YE7q9Xq9sH6rlxhXpC4fDgfHxcZSXl8etvXz130jUul6vXzZgifgctrS0oKKiIpYiR5IkGAwGuN3uRWlzihEl5y9FGUKhEMbGxhb9TRTFpG5PlMIipfwNRPiQO1HNZjMqKysBXDFNLPRhWSgsZttEYbfbUVNTg5mZmSX/RvyE5Jww/X4/zp07B4vFEqvJKooiLl26hHPnzsWie5ubmwEAt9xyC2prazE9PY1bb7112XbOzc2hsrIS99xzD9ra2mA0GhcJfKSM17Fjx/DII4/E0rHkApZlEYlEcPr06djfkvlD9vT0oL6+HoFAACaTCU1NTfjnf/7npM8g5rlUYBgGHo8Hzc3NGBkZSem3qT5nobAzNTWF06dPL1uvNJmAtHCsS5KE8fHxhIK6ksXl5cy55QI0eJ6Hw+FAY2MjSkpKlp1LarUaGo1m2fJOJJiqra0NX/rSl1LyHZQkCSMjIzh69Ci++c1vylpXJEmCIAgoKSlBNBpFc3OzrEjkdA4yctc6r9eL1tZW1NbW4uzZs7jrrrtiAp/VaoXVapWdJqoQiUajaG9vl+36QqFQskPOKm2oVCp4PB4MDQ3B4/HIWvhIYtZUmZycxDPPPJPw30jJIbJJkeCCq7UKDocD27dvB4BY5YFwOIwDBw5g27ZtS66fmZnB888/DwD4x3/8R1ltJRsr8X1Tq9UxB3CO4zA5OYlf/OIX+OQnP4nPfOYzaZ/qVSqVor4/V5cyk9PO+fl59PT04O6775a9eXEcB4vFgueffz5uOalsQ9rV2dmJDRs2YHp6OifPHB4eXjQWCg2NRgOz2YzXXnsNGo0moTaX/G16ehp6vX7ZyGyWZeHxeLBv3z7cdddduO+++xZFjMshlXHOcRxMJhP0ej3MZjMaGxtl/3Y5SHJ6ouFdaOJNhs1mw44dO7LWjkIjHA5j165d+W4GhbLqyNgmIDeJLql08fjjj2NgYCChZmdhYl6Xy4W5ubmsajq2bNmCZ555Bk6nM2by8Xg8mJubQyQSWTYRM2ljtjbhhdo8r9eL2dnZJYJkJqYbhmEQCoVgNptjSbOVIJ4JaznOnz+P733ve5ibm0vpHbPZ/3JROln0wueoVCo8+eSTePfddxGN/j/2zjw8qvLe498z+0xmMskkk0z2bbISICEhIQkoiwQCwbAIiOwqRSuCKKCttXZxo/Zan96rrbfWrdvFVq+9Vbu51bprLeJGI4iobLJnm+0s9w+e93QSZjkzc2bOTPJ+nsfn3pIz57znPe/ye38rl9RO+uG+BWn7gw8+iNtvvx3Hjx+X7OdK7u3z+XDixAkMDg6eZyoP1DeR+IeZTCY8/fTT+Na3viVGWwe6XzS43W4cOXIEHo8HZ86cwcmTJ6mvE4VCUYyYdjBBEOByuSQ5nT/55JP46U9/KvoABNskOI6Dx+OBz+fD888/jzvuuCOiCg9SGOn0/MYbb+COO+7AoUOH4PP5wpp0RmqzYoVsbG+++Sa+//3vo7+//zxtWbQCjtFoxN69e/HjH/8Ye/bskavJsnH27NmgLgKkXwK9eyL9l1iWTVhFGZJY+MyZMwETgish7IZi5NgM1jaPx4PBwcGIclMSrdixY8fws5/9DH/84x/FUmykRmygPuJ5XnIgDGlLqGTOZD2SClkfent7cfvtt+PAgQP4/e9/j0cffVTWwKpkGwsUCiW5iXrXJKW5nnjiCXz44Ydh/fr+9a9/Yc+ePSGrWuh0Ohw+fBhPP/009u7diy+++AKvvfaa7KfikcICKZR+9OhRvPzyy3j++edlfV44yMLd19eHV155BV6vV7aFXKPR4NixY3j77bfjnow4GqQkyFbKOZ1EJr/11lv461//irNnz8b9mV999RX+53/+B59//nlQH6dk3uhDtS2a76hWqzEwMID33nsPvb29YvJvt9uNV199NWAaojNnzmDPnj2yCenvvPMOnn76aQCR+e6dPHkSr7zyihgk8/7778taYSaZxwGFQkk+ot5JtVot+vr68POf/xzvvfeeLBFXer0en332GX7961+LOa4ShUqlQn9/P5599llxcR8tpFoKB7KJHT58GO+88w7eeustDA4OimbVQKly4oVWq8Vf//pXPPnkkxELfNG0lUS2Hzx4UExiTjRaarUaZ86cwd69eyNqC8mHGY1wIAgCNBpNWP8zUlViz549UR8s1Gp1yDq5xJ9Ro9HA6/Xi+eefx5NPPnnedSdOnMDvf/97nDhxImaBiOd5vPPOO3j00UeD+lNqNJqgyeYFQcAHH3yAw4cPyzoPOY7DgQMH8Omnn0YV0UyhUMYeMQVtELOKnOH1PM/D4/GA47iEnmDJpuzz+UIuoPH25YpnbrlUgZgJn3zySTzzzDMAzkUupqWlwePx4OzZswkt/O3z+eDz+SLasInv2ZkzZyJqqyAIokZ7aGhITMGhVqvh8XjwxBNP4Pbbbz8vP1u49vf19YkJoSOBBFGEMr0D54I4Dh8+jC1btuCHP/whurq6Ip4n5H2DafTJuGBZFmfPnkVfX1/AuepyufD73/9etpQxZE0KBMn953K5znsWef9t27bJVm+XMDg4iPvvvx8AEuZuQKFQUpuYo3Tl1sIFSjScSMJtUh6PJ+Udr+X2QYwXXq93mLCk1+vx4osv4v777xdLs0kh1gTBxKwciSbFZDLhww8/xFVXXQWPx4P6+vqIn//zn/9c1M7Z7XY89NBD2LFjR9DckiMh2rDdu3fjtttuw+233466urqI2mG1WvHggw/CYrEgOzs7aLQsyT8ZqYDrz69//Ws89dRTOHbs2Hl/I6XNjh49in379uHWW28NmeJF7jkaLDhkYGAA99xzD1iWhdVqDajpC5eKJhoEQQjpHkOhUJKDeBUJiIaEpWVJdYjP4q5du/DKK6+ktNAnCEJKJj1lGAanTp3Cvn37ItKYkPdNpGlbrVbD5/OJptloIFo8h8MBnU6HQ4cOSRb2/BkYGMCHH34YVfUTMu4HBwcl5YGMxdwerKA7yX/51FNPiXn6Dh48GNUz5EYQBLGCh8ViSZqFnUKhJAeJ3ntCQQU+iZBSR88++yw+/vjjuApMJDVMvLRwhw8fxgsvvICCgoKU0PT5E00Qx/Hjx/HCCy9I8umKR5BIrEIA8eGL9j5Ka8392xHJaZd8C/I94ploOxyRtD2ZTvQUCkU53G43/v73v+PAgQNJoWRRfLdPtcWRlNgKR7RmU1Ku7ejRo2JBav9cfXIII5988gl+8IMf4ODBgykn8AGRC1C9vb340Y9+hH379oUtPn/mzBn09fUlZcLjWNqTDO/i8Xhw4sQJySbf/v5+nDp1KikWSlIjOlwEvSAIOHXq1Kiod0uhUGKjr68P9957L/7+978nRXCV4ho+KRtRMmxWBKk+iyRQQopA5R9UcejQIaxYsQIqlUosUk2eGU3wRaDf+Hw+HDt2LKizd6oFeYSD+AKazeaQ78bzPL773e/ixIkTcDqdQSMvU4Vk+4ZvvPEGvv71r4ctT0d45JFHsGvXLpw8eTLOLQvPG2+8gU8++QQ+nw8zZswI2LcksGbnzp146qmnZPWxG21zkkIZCxC/5mRBsR3NZDLhzTffxM6dO/Hhhx8GvY44nqeaJuqJJ56AXq/HmjVrUFVVFfS6keY2r9d7XqF3jUYDjuPw+OOP47HHHotoAyQarZGbhU6nC9qnyWIClBuPx4Pf/va3eP7554P6AH755Zc4fPgwKioqUm7M+UO+YTJpmQYGBiLyQTx+/HgcWxMZpO3p6elB5wUxvX/yySeyCqn+1YcoFAqFMGvWLHR0dGDXrl2SfAUVE/i0Wi0OHjyIv/3tb+jv7w94jU6nw5EjR/CrX/0Kn332WYJbOBwieEoVgg4cOIBf/epXEAQBV199ddByUseOHcMf/vAHfPzxxyHvx/M89uzZg9dffz2igIU33ngDx48fD9rHgZ7z/vvv4/HHH49LdKGS+Hw+fPTRR2Gv++CDD9DX14dTp05FVMM1WdBoNOjv78c777wDi8UyrLpFOJM2JTRS+i5YwuxoOX36NJ555hl8+eWXst6XQqGkNk6nE7Nnzw6YjzQQitusQglQOp0Ox44dw0MPPRTXOrBSGBgYwO7duyMSgj7//HP85je/wfTp06HX6wNec+TIEezatSusEEfMw5Ge8v/2t7/htddek6xZ4TgO//jHP/D+++9HFRE6Gnj99dfx9ttvw+12p6zAd/bsWTz11FMoKipCU1OTGOn6+eefY//+/bLnhRsJNUHKx8mTJ/G73/0uKXyAKBRK8iAIQkRWHEUFvnA+bgzDgOO4hJS0Csf+/fvx7W9/O6JTNs/zOHXqFFwuV9DNj2VZydq3aDZRl8sFl8sV0W/cbveYzvHl/+6pKLSQeXP69GlYrVYA/04T8+STT+KRRx6Jm/Y2Ffsr2eE4bswevigUSnAiTbGmuIYvVRgaGkJvb2/Ev5OjDNjQ0BC+973v4fjx4zSrfgJJFuGFYRikpaUF1RIH+41WqxUDT0hi5IMHD2L//v0xt8lkMon3NRgMohmT5Ml75pln8MADDyiumadQKBTKOajAlwKwLIvXX39d1nuqVCro9fqUj0SNNwaDQXGzbn9/v1hfN1b0ej30en3Yg4NarT5vfBCz8EsvvYSHH34YwLkqEv/3f/8nCnykHu6+ffvw4osvxtzeZINhGOh0uoiEbwqFIg+kbnUyBaOlEnS3H6OcPXsWr7322nkRwdFAoohHIy+99BI++ugjRReY/v5+/PKXv0xoG44ePYpXX30VX3zxhfhvKpUKLMvixRdfxLPPPgvgnMD3l7/8RdSGejwevPPOOzhz5gy0Wm3cfQUTjdfrxZ49e3DixAm66VAoCeazzz7DF198ofghPFWhAt8Y5ciRI3jsscci9u8LxPHjx+H1ekfdBigIAh544AG4XC7Fk/8m+vl79+4dlvzbn5FCnL/jcH9/P3bt2gWWZVO6/GAwhoaG8Mc//hE6nW7UjXcKJdl55513UFBQQDXsUUIFvjGKx+MRa4DGyqOPPgqe5yVXUEglUjkVBsMw0Ov1SEtLi9gfkdTP9UelUiEtLU303wsEy7JiDeDRCM/zOHHihNLNoFDGJCdPnsSZM2doTsooUUzgMxqNUW1E8UKtViMtLS1ovjxKcN59912lm0AZgUqlgs/nw4svvoh9+/bB7XbHnH/vyJEjeOSRR5IqITKFQhk7aDQamkc0BhQT+F599VVYrdak0QodP34cf/nLX7B3716lm0IZhWi1WhgMhoQ9T61Ww+v14s0338Sbb76JrKysmBfK48eP43//939laiGFQqFQEokkgU+lUomRMaTMWazlt3bt2gWVSpU0aRsOHDiAn/70p0kjgI5VUrWUHoHMC394nsfhw4exd+/ehPri+c/NZNGkUygUCkUZJAl8Xq8XAwMDEAQBg4OD8Hq94DgOQ0NDUUdnJougR2BZliY3TQI4jkN/f3/KRnfyPI+hoaFhgp3H48Fzzz2Ht99+O2Xfi0KhUCipTUiBj2gF9uzZg3vvvReCIMDlcuHtt9/GsWPH8Nhjj+HUqVMJaShl9KNSqXDy5Ek88MAD+OSTT5RuTlT09fXh6aefHhbByXEcPv/8cwVbRfFHr9fDYrEAAI20pVAoYwZJGj6PxyM6arvdbgwNDcHr9eLUqVMpmX9Nq9XCaDTSpMNJBCmzd/LkSfziF79QujlR09/fj+eee07pZlBCsG/fPvz5z39GT08PzedFoVDGDCElHnL6nTZtGu6//34A5xy3f/SjH+Gf//wnvvOd72DPnj0pp+U7duwY3n///ZRr91ggVX33Uhm1Wg2dTjdm+v6VV17BZ599hsrKypApZigUCmU0IUnFxbIs3G43BEGA2+2Gz+cDz/Nwu92yOqHHGggilddeew0ffPABTp8+HdfnUCipQH9/P44dOzam6jQbjUao1Wpq0qVQKGMGyTZNkk3ff4GUe7EUBAE+ny/ui3BfX1/ACgIUyljkrbfewqFDh2RLxJ0K0KhlCoUy1ojaiU2j0SAtLU1WM1Bvby/+9Kc/oa+vT0z9QqEQ9Ho9DAbDmDE9Jore3l709vYq3QwKhUJJSbRaLUwmU9LLLFEJfAzD4MyZM3jvvfdkqcVKePnll/Hyyy8jPz+fbuqU8zh48CBMJhPcbrfSTaFQzoOUsqNrF4Uytjh69Cg++OCDpA9ijVjgU6lUUKlUePPNN7FixYq4vGCyS8kUZbj33nsBgOayoyQlPp8Phw4dkvUQTKFQkp/f/va3ePLJJ5O+cEPUJl2O45JemqWMLpJ9MlFSC4ZhZD1cHj16FLfccgv+9a9/yXZPCoWS/LAsC5ZllW5GWGgiOgqFMiaR25IwODiIV199VdZ7UigUilxQZxMKhTLmcLlc2L17N44ePap0UygUCiUhUA0fhUIZcxw6dAjbtm2jbgIUCmVUIQhC0PzIVOCjUChjDp7nMTg4qHQzKBQKRVZUKlXQsrHUpEuhUCgUCoWSwgiCAIZh4HA4MG3aNOj1+vMCa6nAR6FQKBQKhZLCkAplGRkZqKurg1arPa9qGRX4KBQKhUKhUOKMSqVCTk4OjEZjXJ9BTboKIne+LwqFQqFQKKmFzWbDT37yE8yYMUOW+43U4JF/Cxa0QQW+BKBWq2m5JQqFQqFQxjBarRbjxo2DzWaT5X6RFr+gUbpxxuVy4Xe/+x3N90WhUCgUyhhGEAQMDQ3FXJXDaDSipaUF8+bNgyAIATV9gRgzAp9Wq0VFRQUGBgbw5ZdfJuy5Q0ND2LVrFy1DR6FQKBRJUDeg1ESv16OoqAgulwuHDx+WLIhFislkQmdnJ+bNm4fXX39d8nPGjJ0xPT0d1113Hbq7uxP6XEEQMDAwQAuqUygUCkUSHMcF9cOKFYZhqItRnMjKysL69evR3d0dV4FdrVbDarXCZDJF9LsxpeGrq6vDiRMnlG4KhUKhUCgBGRoawve//32cPHkSHo9H9vt3dHTgkksuwW233Ub3Q5nR6XSorKwEz/NxFfgEQYjKLDxmxHxBEOByuWgpJQqFQqEkLSzL4q233sL+/fvj4gpUUlKCBQsWIC0tTfZ7j3UEQYDb7U64nMEwDPR6PXQ6XcjrxoyGj0KhUCiUsY7X60VfX1/cTMaUxKJWqzE0NIQ33ngDx48fD6ldpAIfhTJGoE7gFAqFMrrQaDTo6+vDb3/7W/h8PlRUVAT10aQCHyUuMAwDtVpNhYwkgWEYGAwGaLVa+k0oFApllMAwDHw+H/r6+gAETsZMoAIfJS54PB6cPn2aRicnCYODg7jvvvvwySefxJwDikKhUCjJg9RDPBX4KHHhq6++wrvvvovTp08r3RQKzkX+/eY3v1G6GRQKhUJRiDETpUtJLP39/fjiiy/g8/mUbgqFQqFQKGMeKvBR4oJKpYJGQxXIFAqFQqEkA1Tgo1AoFAqFQhnlSFLBaDQaGI1GAIDb7YZWq41roygUCoVCGY3o9XrU1NTAYDDgzTffVLo5KYdWq6XWoygJ2Wsk8uPo0aN44403IAgCzp49iy+//DIhjaNQKBQKZTSRnp6OK664Anl5eVi6dKnSzUkpeJ7H0aNHxRQklMiQJPB9/PHHePDBBwGc0/B9+OGH8W8ZhUKhUCijDEEQ4PF44Ha7lW5KyuHz+fDaa6/RKiFRElLgIwn8iouLMW/ePAiCgP7+fng8HuzevTshDaRQKBQKZTQhCELIBLmUwAiCgIGBAaWbkbJIEvhKS0vR3d0NQRBw6tQp9Pb2JqRxlOSCYRiYTKawBZopFAqFQqEkF5I8HwVBAM/z4v+NtzqVYRhaAioJ4TgOH3zwAY4cOaJ0UygUCoVCoUSA5FAXooJOhBqaZVmcPHky7s+hRIbb7cbll19O/SeSHIZhoNFo6IGJQqFQKCJJGdt8+vRpPPzww0o3gxKAYHVYNRoN1Go1fD4fFQgVhuM4DAwMjPmauXq9HjzP02ovYwy1Wg2NRgOWZcFxnNLNoVCShqRMvOzxeNDb20t9BVOI5uZm9PT0wOFwKN2UMc/Ro0fxi1/8Ap9++qnSTVEMnU6HSy65BC0tLTRv6BijvLwcixcvRnXkIvzIAAAgAElEQVR1tdJNoVCSiqQU+Cipx+TJk7FkyRLk5eUp3ZQxz+HDh/HII49g//79SjdFMXQ6HZYtW4YpU6bQIKMxRkVFBZYtW0YFPgplBFTgo8iCRqOBTqeDSkWHlNIIggCWZcd82gedTkcz8qcYarUaaWlpMX03lUoFnU4HtVod0fXU55ViMpmg1+uVbkbcoLszRRZ4ngfHcWNeyKAkDxzHUX/SFGPcuHF45JFHMGXKlKjvEelaVFBQgBUrVsBqtUb9TMro4L777sPXvvY1yYeFVIMKfBQKhUJJCkwmE8rLy2E2m6O+R6SaOr1ej+zsbKoNHuMwDIPS0lLk5OQo3ZS4QQU+CoUyaiG5QympAYmqjvabVVVVoaOjA1arVXKEriAI1DpBAXCudNtojuwOKfCRBMj05EOJJyqVivrPUGSFbN6ZmZmj+sROGc7s2bOxatUqOBwOmo6HEjWjVfgPKvDxPA+NRoPc3FzY7Xax0gaFIhUpQhzDMFTgo8gOz/NQq9VYuXIlduzYAbvdrnSTwkLX19hJT0+HzWaDRqOh/UmJmtE6dsJq+PR6PU1rQIkYlUolKWL3q6++wvbt2/HSSy+B5/lRGeVrMBiwePFifOtb3xrVEWDJBsMwyMvLQ1lZWUqsYdT0HDssy8Ln843aDTtZmD9/Pm688UZUVlYq3RRZEQQBXq8XbW1tuOmmm9Dc3Kx0k2Ql7O5KNXuUaOjt7cU///nPsNd5vV688MILOHjwIARBGJWaPo1Gg5qaGkydOnXURn8lK16vF263O+nWsLlz52Lu3LlQqVTgeR4ulwutra1YsGAB0tPTlW4eZYyRlZWF9evXo6SkRNL1lZWVaG9vh81mi3PLEg/P8ygoKMDUqVNHXV7Z0adOoSQFn3zyCXbv3i3pWq1WOyo1e/7wPD/mS51R/s2CBQuwYMECaDQacBwHl8uF8ePHY/ny5TQ9yCghOzsb48aNQ2ZmptJNCYvdbseGDRtQVlZ23t8qKirgdDqHWSfIepZsBym5ILlMR5vWfdTtsqSO4mjUFKUSPp8PXq9XkmmXYZhR/70EQRi1iyMlctLT05Geni6Oe0EQoNFokJmZmZJaYLVaPSYObpHQ2NiIq6++GvX19Uo3JSwajQY2my2g68OyZcuwYsWKYYLraF/PRuv7jbrZOXfuXGzfvj3gSYWSeBobG3HBBRco3QwKJalgWTagxjdV/c+6urpwww03oLi4WOmmJA02mw1VVVXIyMhQuilhEQQhaDqc0tLSlPGDpYRm1Al81dXVmD59ekqo0ccCBQUFKC8vV7oZlDhQUFCAlStXYvLkyQAAh8OBq6++GrW1tQq3bPRG2SUrNTU1uPDCC1NCuEkULMvC7XanfF43j8cDj8dD59QoYNQJfB6PBwMDAyk/yUYLxLRLGX3k5+dj2bJlaGpqAgDk5uZi/fr1qKqqkvU5FosFkydPRl1dXcjrVCoVysrK0N7eDoPBQNeABELXXQol+Rl1Ah+FQlGGePm92O12XHbZZZgzZ07I69RqNdra2rBhwwaYzeaUCZIZrf5CFAoluaAlNCgUSlSQsmX+wko80jjpdDrk5+fD5XKFvI5hGGRkZKCkpCRlEu/yPA+O40ZdNCCFQkk+qMBHiSt0I6PECnEol6Kx4zgOXq83JYQ9n8+HsrIyTJ8+HR0dHSnRZgqFEhvkUNza2oqKigq89NJLOHz4cEKePepMuqmy2I8FGIZRpA6zw+HA9OnTJScRpVCUwOv1oqSkBGvWrEFLSws9HFEoYwRBENDW1obVq1cjPz8/pnuRxO1SUFTgy87ORkVFBcxmsyz3I+HjWq2WCn1JQHV1NVpbWxMetFFbW4tNmzaJ0aMErVY7JqMIzWYz6urqYDKZlG4KxQ+GYcCyLPr7++HxeJRuDoVCSRAsy2JwcBD9/f0x+RrzPA+z2YzGxkZYLJaw1ysq8LW2tmLDhg2y1eNbuXIlLr74YqSlpSWFw7ZGo0FaWhq0Wq3STVEEIvD5fL6EPlej0cBgMJynXTQajZg1axYWL148phLElpeX45vf/CaKioqUbgqFQqEkBTqdThELFHAu8XpaWlrMBQe8Xi+Ki4txww03oLq6GkDolFSK7np5eXmYMGGCbFqXuro6OJ1O6HS6pDCPOJ1OXHbZZRg/frzSTVEEn88Hj8eT8CoagYIJCBMmTMD69evHlBButVrR0tIi6QRIoaQyo71iD0Ue1Go1GhoaUFhYmNDDP5FLlixZgs7OTphMppiUUxzHwWKxoKmpCVlZWQCSWOAjDtZyCWfEsTtZzLmlpaVYunRp2PxhYx2GYWAwGGAwGOK+YLMsO+ZyhfE8D4/HkxSHIApFbjIzM9HZ2YmcnBya85MiCYZhUF1djby8vIQKfIIggGEYdHd3Y8aMGTCZTDHvRzzPS5ajJL2pWq2GXq+HXq+HTqeTrdbjaA+w4DgObrdblOBJqZ14FUd3Op0oLS2VbQCrVCpUVVUhPz9f0j3JwIsUn8+HvXv3ore3NyGm+NE85iiUsUZ5eTnuueceNDc3o7+/P+A1JpMJTqczZgd5irwYDAaMHz8+4b7Ver0e+fn5ivn7e71eReSfkLs40bb09/fj4MGDOHjwIL788kv09fXF/GCz2Yy8vDyo1eoxswG3tbVhx44daGhoiMv9t27dissvv1w2c6Ver8eNN96Inp4eGAyGkNcKggCj0Yi8vLyw145kcHAQDz30EB555BHJ0UZyYjKZYLfbFfPnoFAo0lGpVMjJyRGDkDiOw9DQEFiWDWohKCoqwpYtW7Bo0aJENjVpEQQhKSwdubm5uPvuuzFp0iRZ76vRaGCz2YK6sWRkZGD+/PnIzMyMqR/UajUyMjJSJhhQksC3d+9ePPTQQ3j44Yfxq1/9Cu+9917MD77ooouwYsWKMVUCKS0tDQ6HI27Rkrm5ubDb7bKZRVUqFXJzc5GZmRlWw0dyiq1btw4TJkyI6Dk8z+PUqVM4depUws2ODMOgsbER11xzDWw2W0KfTaFEA8MwUKvVIeekSqUatf5sFosFW7ZsQWNjIwBplUr0er24llHOjQ+dTqf4GNFqtSgqKpJ9T8zOzsaKFSswY8aMgO+oVqthtVpjtlamp6dj8eLF4kEi2ZVXYe10giBArVZDp9OJJl05TIYtLS2YNGkSdDpd0neSXIQKJpADnudlF5jIPcMJ5SzLwm63Y/r06bJFXScClUqF0tJSzJkzhwY1UFICs9mMBQsWoLKyMuha3NDQgOzs7AS3LDEYDAbMnz8fZWVlAKRtsmTtpX6s5w7nVqsVPT09Yq5SJfdgjuNkf77FYsG0adNQX18f9Bo5nmkymdDS0oLW1lbZ7hlPQkpuPM+DYRg0NDRg+/btuOGGG7Bp0ya0tbXF/OBk7xjKcKxWKyoqKkKexFJ1UY23IB5vTCYTSkpKqPYiCWEYBhUVFbIKX5mZmdi2bRumTJkSVOCbO3fuqE7Do8R8VavVqKysTPl55vV6kZOTg23btqG5uRnA6KuIlMg1PZVqYUtW1TEMI/4nB6nSQWMdMphbWlrw6KOPimaUUNenIqnabuCcNudHP/oRFi5cqHRTKCPQ6XT4+c9/jjVr1ihuPhtN+M/XeGiIAmG1WvHLX/4yqeeZ2WyGzWaTLbAymbBarcjIyJA8jxIliI06gc9fc5PKmhClCNdfDMOIJvNkhZRJi2XTUqvVMBgMYyrpcSIg34b2a3Ki0Whk34DDrcMsy4LneWi12ph8tRiGgVarVWxtUqlUIYPANBoNTCYT1Gp1QvameHxLOVm0aBFuvvlmSVpIufuLZPOItn80Gg30ev2wsUruyTAMvva1r+Haa6+F0WiUq8lJIcskUrtKd4gEEG6xNZlMmDVrFrq7uxPUosghUV2xTBAS1FFQUCBjyyjk24w2s8xoIdHfRqvVwmg0guM4tLW1obu7O2ozpFarRXt7O5YuXapIFHthYSE2bNgAh8Mx7N+JEmL8+PFYvHgxHA5HyChduUj2eVZSUoLx48crIqCXl5dj6dKlqK2tjeh3pD8nT56Miy++eFjwXG1tLZYuXYrs7GyUlJSgurp61GVTSKTmX1aBz2AwYMqUKcjNzZXztimLIAjQ6XRoaGiA0WgMWmLMZDJhxowZmDdvXoJbmFjKy8tlKRZNoVCCU1dXh46ODphMJkydOhVdXV1Rp43QaDRoa2vDkiVLElqdhhwsCwoKcNVVV2H+/PnIy8sT/0b+a2xsxKJFi5CdnY36+npUVVVBpVIlheZmJDk5OWhoaEB6errSTYkL5eXlWLx4McrLyyX/xufziQJfa2vreQJfdXU1lixZgtLS0rgk1Z4wYQLKy8vBMIysY4bjOEnZR9LT0zFlyhSYzeaI7u/z+aLKbiKrwJednY0f/vCHYsTKWIdlWVgsFmzevBkrVqwImhQUOLewjlxQdTodTCZTTCcAvV4f8z3kQqVSQa/XR2161Ov1spuE5Tytq9VqGI1GRcu2abXapPneFGUwm83IyMgQzY9arTbiOaNWq0VTKUnhoQRerxd2ux233norOjs7oVKphm10Go0GGo0GgiDgpptuwqpVq6DRaJKilvpIWltbcccdd6C0tDRufodK+pMR83tGRoYkDaNWqx2WGoV8S/81mYw9kq9XrnfjOA5qtRrXX389Lr30UqSlpclyX+Ccxs5oNIbN+sBxHMrKynDnnXeKwTNSUKvVSE9PjzjfLSCzwKdWq5GZmRmzOpnkmUpmXwmpkI+flpYWcrCOjG7V6XRYvnw5HnjggZiSOm7YsAE/+clPkJOTE/U95GKkWVilUkXkF3jDDTfg29/+tiwaQuL3Jqd5oLm5Gffee68imlrij9PT04PHHnss4hMjZfTgvzFG63c9adIkPProo+jo6IBKpYpagIrFv5Rs9oIgwGq1BvTdIimjyDVybtxyo9VqRUF8NOJyuZCXl4dbb70VX//610Neq1ar0dXVhYceeggOh2NY6Ud/Pz6prkTRygwWi0XWAzLLsjAajbj88svxn//5n2FlIY1GI1lAJlRXV+Oee+7BokWL4PP5Iprbsgp8giAMU9FGS0ZGBi677DJcdtllMrVMeSJVvzIMg4yMDJSUlMS0QNjt9pjvITdkgE6YMAG33HKLWPQ5HA6HQyyHEws+nw+ZmZnYvHkz2tvbRYfvWDGZTCgqKlI063pGRoas5fUoYxOtVovm5mZs3rwZc+fOhUqlimqOWK1WXH/99REdgjiOg06nw8yZM7Fp0yYYDAa43e6wa2i0Zq5EEukGnUoIggCtVou8vDxJCoaMjAyUlZVBq9WKBxOn04lvfvObYn5AqdhsNqxevRrLli0T2+LfrmDEo7Y6wzDIyspCcXFxWEEyGpnJYDCgqKgIVqs14rGUlLvCyGSGkUJOuB0dHWhqahL/LdXgOC7menssyyZdzWLSlqKiInR3d0vWRrEsK8uCybIsTCYTZs+ejYqKCtn8N3ieV3zTIWMmmR3LKcmP1+uFXq9He3u7mLw2mjliMplw0UUXYfz48ZJ/IwgCNBoNamtrMXPmTFEgSEV4nodKpUJxcTEuuuiilH0PqRABRopGOND+lpOTg3nz5kVskUpLS8OUKVMwefLk89qjBGTfjQekjxX34SPIMaijNbcRYY/jOKxdu1Y8WUa7CatUKmRkZCA/P1/UmmRlZSEnJyeptGapiJLlfUgqnNHgNuAPz/MwGAwoLi5O6jQ/yYTVaoXD4YjKJyaZkSPthhxuDzqdLqp7aDQaxXwH5YIIfJ2dnVi1alVKpzXTarWw2+1Qq9VxO9T6++xFiv9YFQQBKpUKWVlZKREkyPM8NBoNcnNz4+oDnrQCnxwVG7KysmKOiNLpdOjp6cF3v/td0bdg9erV2LJlS8IyrqfqAhEOpQt4JyphayJxuVyorKzEf/zHf4gFyUe7ViFWenp6cNNNN6GiokLppsiKHClE5FiHo22HlJKOkRJqvsdzLcjIyEjp0o0cx8HhcODOO+/EnDlzQgYgxkIs6b/8xwvxpVu+fDm+9a1vJb1yxu1249JLL8UNN9wQ1wo5sgp85DRz8803Y9WqVbIXRPZHr9dj/fr1uPbaa4OaBEOplktLS3HjjTdi6dKlIZ/DMAxyc3NRWVkpnjoKCgpQWlqakGhMor6NBLrBj104joPJZEJNTc2oTf8gN7m5uSgpKYHdbsfWrVtx1VVXKd2kmCDr8N13343LLrvsvMjWsUywfhAEIa6RvXLeu7CwED/84Q9x0UUXyXbPcAiCAIPBgJqaGuTk5CRlFDTw772P53mo1Wrk5eWJbjuRIggC+vv7sWbNGnzjG98IGBAkZ9RwQUEBysrK4mppkF3gYxgGkydPxrhx4+KrmlSpMH78eDQ1NUWl9s/IyEBrayuqqqrCXuvz+eB2u8WP6/V64fF44noiJKZph8OBr3/965JzG7Isi7KyMixcuBDFxcXweDwxt4XjOLAsK4vvXKj/TYkdhmHA8zxcLlfKbfJTpkzBwoULEx5R7vP5MDg4CABoampCQ0NDVPfJysrClVdeibKyMjmbFxUMw+CCCy5ATU0NAHk2plTWhhMBYO7cuZg7d+6wv3m9XjgcDlxxxRVwOp0KtVA6FosF06dPR2lpqWz3lLK+k3XF5/MpmvaJHGi6u7sxf/58AOfGJsMwaG9vR09Pj+j36fV64Xa7o3qOIAhwuVyoq6vDlClThskzFosFZWVlcDgcESlYgvUzwzBiW+OpsImLSZdl2bht5larFZMmTYLFYoHX643aMTIZHOzDQdToV155pWQ/BJ/Ph9LSUixZsgRVVVUxCXxkEpWVlWH8+PFi9v5o7mG1WtHU1CQ6ZBcVFWHixImyJ7ykpC5tbW3o6elJuMDH8zxsNhsmTpyInJwcuFyuqO5js9lwxRVXRJR4Np7Esr6N3HSIb2h9fT3y8/NTLs8jEfimTp2Kiy++eNjfvF4vcnJysGbNmpQw6xNBJlbBgKzNDocDzc3N0Ov14njJyMhAU1MTTCZT0h3MSQ69+fPniwIfEaSamprEqjDR9g9RthgMBjQ3N6OoqEg8EBIqKipw0UUXITs7W7Jfps1mQ2trK9LS0hSTO+Ii8MUz+WNVVRW++c1voqCgIGYfrFQoeqzRaJCZmRmRD4JWqxUTMwZ7P4ZhoNfrQ2phyYLQ1dWFdevWITs7O2LzMsdxYBgGM2bMwDXXXANBEGA0GjFv3jxceeWVcXUApsiDVquFwWCI+yZPkpUm2t/G5/PB6XRi48aNaGlpwdDQUFT3UavVyMjISJpAg1jWt5G5yXw+H6xWK7Zs2SKmMkpFyNroj0qlgtFoTKpvFw5SWg5A1MnsBUGAWq1GW1sbtm7dCqvVKq7vlZWV2L59O0pLS6PWkMUThmFgNptFMytJeE9yHcYKx3HIyMjAli1bMHv2bAwMDAz7e11dHebMmSNZqGQYBg0NDdi+fTtyc3PjFsEbjrilZfF4POdJxXKQnp6O+vr6uPoHJhPEhy+ShZvnebF4ejBsNpuYYyvUsxmGQX5+PsrLy8UkqNFQWFiI4uJicZEpKCgQS9pQkpsVK1bgxhtvjLtPYKyuA5EeRgg8z8NisaCyshJWqzUmrZgceUhjZXBwUDxoRcP06dPx3e9+d9h8JznWampqkJ2dndLzdqTGqq6uDu3t7ZI1otEeCOTG5XLhggsuwNatW6NyIyDre3Z2NmpqaqDVasXvbbFYUFtbC4ZhFHnfkQJWIFiWxcDAAIqLi7Fjxw60t7dL9nkPt8aQ8V5dXQ273X7emNFoNKJ2Tyo2mw21tbUwGo2KrRGyCnxDQ0PihJk5cyY2bNggOamuVDiOg8vlCtlhPM9jaGhIlmLabrdbMWk8XlRUVOCuu+7C6tWrUVlZGfZ6OXwW/ftQEISYzPGUxNLY2IgZM2YkbZqXnJwcbNy4EZMmTYraRYDjOFGTEcmaYTKZ0NPTg66uLhgMBsWFvalTp2LDhg1wOBxRz69x48Zh5syZYjkrAvFpiqfLjhKQoJ1wEK3a6tWr0d3drXhVD5/Ph9raWkybNi2mjBEsy8Llcg371iQh8fXXX4/Zs2eDZVlxf4+XsE800iqVClu3bhXnc6g55fP5kJ2dLfo0Bpv7JO3J/PnzcfHFF0syVQuCIPrUkXaQFDtr167F0NBQRGsN6edA7+NyuRKyH8oi8DEMg8LCQnR3d8NisYBlWbS0tOCSSy4ZVgg5EQiCgKysLCxYsAAlJSUxdaJer8e0adPQ2NgYc0FuuZIGy0F5eTnWrVsHq9Uatb8SZezgcrkwMDAgeeyS6zIzMzFnzhzZD30jyc7Oxtq1a1FbWzvs+YnAYDBg7ty5mD179jAfqERABBCj0YiLLroI+fn5aGlpweLFi6NyvyC43e7zBAD/ZxK/3unTp0cs9GRkZKCtrU1SsFw4SBYGOYLJpAiwRCCZN28eOjs7ZbMy6XQ6NDc3Y/z48UFN5TNmzBADSsj7MgwjWtJGjjtyzbhx4zBt2rSI20R8rdeuXYvm5mZUVFRg5syZcDgcQceVfxLlaA8EROBbs2YNGhoawgp8DMOImr5Qez3HcdBqtZg9ezbmzJkT1eGM4zioVCrMmjULM2fOjHp++UPmcGdnJ5qamoJWtFGpVGhsbMSkSZNicmWTTeCbMGECNm3ahKysLPHDK3Ha5Xke+fn52LJlC8aPHx+TOtpisWD58uWYO3duzOW3HA4HSktLxULfSjOa/eaIE20y9HMiSZZ3Jm0oKCjAtm3bZI0mDPa8kY7TiUxwG229WrmebbPZsHXrVtTW1soWUR8MIvA1NDTgmmuuCSvMj+yXgoICrF69GtOnT4+5LUVFRcjLy1NkTZVjbyNtTktLw9KlS9Hd3X2e/6rRaERtbS127NghVp6S8mxyzZw5c7Bhw4ao28hxHHw+HxobG3H55ZfD6XQGDAQ0mUyoqKgQfcJzcnJiCr6Kl+wgR15JOccaWbuuuOIKdHV1BRX4NBoNFi1ahOXLl8ekXZfNOzo9PR1FRUXQarWKCnzAOc1ccXExDAZDTIKNRqOBw+FAVlZWTGpslmUxf/580b9HaWEr0AY5miDjTul+TiTkmyptUvTHYDCgtLQ0YNF7ufEfz4lee5QWtLVaLUpKSpCWlpawd7dYLCgqKgob5DCyLQaDAXl5eTh48GDUzyb3XLVqFViWhdlsTriJWc40N2q1WqywMHKfqa6uxpYtWzB16lQ88cQTEd87KysLhYWFUbeRrCnp6emw2WxBNWMdHR3YtGkTMjIyRI3VkSNHcMcdd0SddDsec0qOuRqPdhUUFIiFHQLBMAxycnLEOR4tsvnwyVH3VS6Ij1is/gbEATTWxYRlWdTX16OjowN6vT6hfcQwDHw+nyQn2GRHyrecOHEirrrqKjidTixduhSdnZ0JaJmysCyL9PR0LF68GMuXL08aYZ7neXg8noQKX0TDTypnRPPsVHNzIOtdIvtZynpfWVmJDRs2oKqqSvSPJIEtsayp5JlNTU0YP3489Hp9Uh10wkGE8ubmZnzta1+D2WyG2+2Gx+NBQUEBNm/eLGrFc3NzMWvWLPGaSJGrpmu4Gt3V1dVobW2F0WiEIAhwOp2YPn160DV7LB3GpeD1esPOCZ/PF7MZOW5RupR/Q3wt3G73MOfwUJBAiVjxer0oLy/HggULkramYKhNIycnB11dXcjOzpbUHx0dHVi+fDnKy8uxcOFCLFiwQPzbaAzAAc4tBBaLBRdffDEWLVo0KkvGSYFspA6HA5s2bUJ5efl5wm9raytaWlqC+l95vV60tLTgggsuiGsmAHIQI2vCaKSurg5r165FUVFRXFJ7JCIBvtzwPI/BwUF4vV7U19dj06ZNsFgs4tjNz8/HddddJ0bdsiwbc9R1MARBgMfjiXqf8d/LiPWKfAsSODkSs9mMzs5OVFZW0hysCkAFvgTC8zzS0tJQV1cX1vfF6XSioqIi5mARl8uFmpoabNq0CePGjYv6PvGChL8XFRWhuLj4PKflyspK3HzzzSgvLw+qeTGbzXA6nUhPT8fAwIDodzI4OCimBtJqtairq0NxcXHc3ynREMdm//cdy3Ach4GBgWGnYTKHLrvsMqxcuTJoVOPQ0BDmzZuHq666KmA+L41Gg8LCQjFBb7Rzk2VZFBQUoL6+Hunp6SE1VAaDAeXl5XA4HFE9Sym8Xq9YczWV07hIgZTwCndIMJvNGD9+vJhH9uzZs8O+PcuyOHv2bEyaHKJFDQVZd6uqquB0OiPaZ4jW0Gq1ign5pWpss7OzsW3bNkyZMiWov1oqkwxpmUIRd4Ev2CAai5K9z+eDw+HA+vXr0dPTc17NPNIn+fn5uPzyy9HT0wONRiOLxkav1ydlslRS5HrJkiVYsmTJeX2iVqthMBhCtr20tBQbNmxAQ0NDUKEwMzMT69evx+zZsyM6WVosloT4oMWDsTjHgkH6QqvVQqfTBRVASJ7IYP40RqMRCxYswOWXXw5guI9aJP1NcqhdeeWVKC0tDal5zsnJwfr168Xaqan4XVOxzZHQ2dmJ9evXh7Si8DyPoqIiXHnllZg2bZqsrhf+/qsGgwE2m21YXr2RsCyLtLQ0LF++HIsXL4ZOp5OkaRYEAVarFSaTCU6nExs2bEB1dbVkDS5J+J+Me1Es+PtMBkpfFYnvIImQjkcS8LimtOd5PuhAGE15nKRCyhONGzcOGzduhNvtxq9//WtxIHi9XmRmZmLTpk3o6elBUVGRqL2J1bybLH5dIyEnTafTKW62I/8eTuBNT09HXV0ddu/eHbSfTCYTampqUFxcjH/84x+S+2LdunXYt28f/vznPyf1yc0fItCORvN1rPh8vrCVPEIFPmi1WpSWlor5K8k4GllvOxw8zyMnJwcmkwkcx4UcWyRSkxxmknEeh4NonFKx7VIoLi5GbW1tyDQ1HMfBYrGgrq5OtvWYYRhwHCeuex6PB5WVlVi5ciWeeOpUpuEAACAASURBVOKJoBHbPM9Dq9WisrJSjLwO1x6ypixevFhM2Gw2m5Gfnx+RW0Iy7kX+gX7RaKPJ3r1x40ZxLwt0jZT39nq9GDduHFQqFf75z39G3JZQxE3DJwgCcnNzcckllyA7O1v8d6PRiJaWFjQ2NiqygZKPSRIzRwvxrYgUjuPAcRxaWlqwZMkSAP9eBFmWhd1ux8qVK1FaWirmh9LpdOju7kZ1dfWoOxkB594/lmSuUuoiRxOAwzAMli1bhvb29mGLQENDAy688MKkLcNEIhdnzZqFurq6mN0CYkEQBMXNzORQ0d7ejvr6egDS0j6QPps4ceIw7RpJQgv8e4Oora3FwoULJdfJJMK4FBOQXMFjwaiursbcuXNDCisk11k0azbHcZg6dSomTJiQcgEW/gTKd0eQmmfVf63yd8Xw+Xzwer0YHByMaK6yLIv8/HzMmzcPdrsd/f39KCgowOLFi1FRUSGm6cnMzERHRweqqqpEbVM048rj8WDevHno6uqCRqMJ6oNK8uMlo38qcfch45DIKrNnz0ZRUVFUyhWPx4PCwkKsXr0aJSUlYv+SpM3Nzc248MILJWUO8Xq9mDBhQlzcj+JWS5fneVRWVmLnzp2YMGGC+LesrCzccsst6OnpkSVxYaQQVXZDQwOysrKiXnzsdjtaWlrOM0FGQiDtJ8/zYjZ74NxiaTKZcMstt+Diiy8OWft2NJKoyG9yyi0vL0dhYaEoWJNAD39N5J133olrr71Wdqf+3NxcVFZWBr1vSUkJqqqqwmqofD4f7HY7rr32WqxYsSLmHJIE8h1KSkpQXl4e1kxBTBPNzc1oamqC0+lUZPwSzfodd9yBmTNniv8m5XcAsHz5ctx6660AIGrjcnNzUV9fL9YxnTlzJm677TbYbLaQ65pOp0NVVRWKioqSZjPs6urCbbfdJvoI+n9T8o1tNhva29sjTgtBhIrVq1fj6quvhtlsjvq9RwYGREs0z7darWhpaYHFYpH8+3ABJRzHIS0tDZMnT4bD4UBhYSGampqg1Wolz1cS/HHTTTehsbFR1AL7C2JutxvFxcXYvn07uru7Y0pNQgIQw70by7LIysrChAkTYDabo3qW3JA13uFwiIFbJPq4pKQEO3fuRH19fVS5e4mm1eVyDRsfJFkzGf9WqzWsgM0wDFwuFyoqKlBeXn5exZtYkCTwMQwDtVot/ie1UHOgDhAEQdHINJfLherqatx0002YMGFCxGYv0vHNzc3YuXNnQiJfBUFIWOmVRENMtoEWOIvFgry8PGi1WrE2cLzyGJKyOddccw1WrFghphfw/7vVasW2bdswe/ZsHD9+XHZBtKurC9u2bQta5mn9+vXYsWOHpAWUuAHIOWbIN1q7di2uvfbasKZ2lmVhMBhw66234rHHHsOWLVuiWvzl8GElcygavF7vMHOqIAhobW3Fzp07YbfbRa1NsOoU/m3Izs7GTTfdhLlz5wZMlUTmQyIh7xdoDpLD+4QJE3DPPfegsLAwKqGLRIRG8x3JRp2dnY2srKyYN0Cz2YyCggI4HA6YTCZJ95o0aRLuuusulJaWSvJXS0tLEw+OwdY3Iojddttt6OjowJw5c/Dtb38b6enpESlDSLRssFKiRJMYSZaCWOfc0NAQGhoasHPnTlmqqvgTas8I9zuGYTB16lTcfvvtyM3NhcfjQUZGBnJycsR5F48Ao0giygVBwNmzZ7F69Wps3rxZFEzlQJIPn3/4tdvtjmgwBnpBJe33PM/DbDbDbrfDYDBE3Raj0Yjc3NyEmfWCtVOtVovq81REpVLBYDCIwSn+TJ8+HatXr4bdbodarYZWq4VGo4lbTVeGYWC32+F2uwMeajQaDXJzc2XTmI3EYrHAbrcHHVOZmZmw2+2SD1yxnOSD3Y9hGNhsNmRnZ0vy+SEJQzMyMuBwOJCWlobTp09H9Fy5nLyj7YuR/SgIAoxGI/Ly8oa1S8r9yRiyWCw4e/bseX/3DxhJ5DoZTlA1GAywWq04efJk1EJbtO9DymJ1d3djaGgIzzzzTEzuH+PGjcOdd96JkydP4qmnnpIk3BiNRjgcDuj1ekn737Rp03DFFVegv78fWq02oGZbEATodDrk5uaKz9fr9Th58mTE7yVVkJCCSqUSNdfRQjJS5Obmyr5ek/ZFai0g65HJZILBYBCVCBdeeCHq6+uHCX1yE8n4V6lUUKlUyM7OFtf7hGj4yAffv38/du3ahccffxxPPfUUPvroI1kerhTk1BrNKRWA6Ksh94YaDdXV1ZgzZw6sVuuw0xvRpCazVpBlWVgsFvT09ATMy1RbW4spU6YgPT0d8+bNQ319PZxOJ+bOnQu73R6XNoWrVhFP/6Nw4zKWShpkPMhBpO0gWtnCwkIsXrwYFotF8m/z8/PR1dWF4uLipDrUhArsCEewb+z1elFYWCi+b6LweDxhtRpSgqciIdTziDbQP9BDrVZj4sSJaGlpickP0Ov1oqCgAMuXL8f8+fNRWloqaR0nVimp7z9+/Hg0NzfD4XBgxowZaGpqCujj5z/nYxlTckAEovHjx2PWrFkRma+D3U/uAA232w2r1YrZs2ejtrY2qv1tZLuqq6vR0dEhydwab0hVE6fTCYvFIrvbW0gNH9mAv/zyS7zwwgtgGAZerzemsjipCvFHKiwsRF5eXtiizomitbUVCxcuxKFDh0RnUxKBVVdXB6vVqrhQ6o8gCGJWca/Xi6ysLGzduhUejweffPLJeWkueJ6HWq3Gli1bRD+6jIwMvPfeezh+/LiCb5I6kH6rr6/H0aNHcfr06YRrjwRBwLhx47Bt2zY899xzkg+NEydOxMaNG2G32/HMM8/EuaXK4na7UVtbi40bN+LQoUNxX2dVKhVycnLgdDoTbkb2+XywWq2w2+3Yv3+/OB4FQYBer0dVVRXy8/OHHQLlOmD7mwTD3Y/4fFVWVkKn00nSagP/DsrJy8vD2rVrRSE2mSEBBp2dnVi3bt15SoR44vV6zxOISSAL+TeO45CVlYWuri6sWbMGzc3N+OMf/xjzs+UYVyzLyvJ9OY5DdnY2mpubzxNA/SOyo5U9Qgp8JJJo+vTp2LFjBwDg9OnTuP/++/Hhhx9G9cBUhSxQ9913H9ra2sAwDPr6+pRulgg5MZPFzGKx4O6778bQ0JCs2ehjLYmk1WqRm5sbMKktz/PD7p8MGtRIUcIHKxxerxcZGRm4//77cfPNN+Phhx9Oas0vJToijYo0GAy4/vrrsW3bNvzpT3+Kaa5FOubPnj2LWbNm4cYbb8R1112H3bt3w+VywePxwOFw4Hvf+96wSFZi1pJrPZB6L41Gg6uvvhpXXnklzGYzPB5P0KApookkdWeJQJlMSadJ1G6y4B9IYbPZhn3n7OxsmEwmaDQa+Hw+9Pf3Y9GiRSFLtkXbBiA23z2r1YqCgoK4fGui+PD5fMjOzkZBQUHUrmSSfPhUKpX4AJ1Ol/DUIAzDQKfTJYVGTaPRxM2HKxpCqc1JW+XEYrGIjshSIROYZVkUFhbi+uuvF8sJkQlP/FksFkvAk5J/CH0y5nEiqFQqmEwm6HS6pBOqYhkPcvR7NCarZP/echPL+5rNZhiNxog2HeIDHAs6nS7i5wLnTMkkwvS//uu/8Ne//lV8byJUJcM6q1arw0bGA+eEKbPZjHXr1mHNmjVitGei3iHcuGEYBkajMWT6HSA2d4VI4TgOGo0G27ZtQ1paGkwmkyiQrlu3DsC5caLT6URfwGTaf4mZf968eWhsbITRaBQPKLHg/x3VarXYLxdeeCEKCgpQXFwclWJBksDnr7WIJjomVtLT09HZ2YmvvvpKcVOqEu8fLXK1lQw+rVaLtWvXor+/H3v27JH8e4ZhxO9mNBpRXV097L5kgkycOBFr1qzBfffdl/Tmj0CwLIv09HR0dXXh0KFD+NOf/qR0k4YRy3hgGAYqlSqptBWUcxC3hyVLliAtLQ16vV7yZhDL+kAOa3PnzsXMmTMj1m6zLAuTyYTq6mrk5OQM+1syrbNSMwMQC0Z1dTVKSkpw5syZBLTu34SanyRifsaMGZg4cWLS1LElY8h/TyDfvaSkBCqVCqdOncKqVatQVVWVtLWn8/LykJ2dLfvh1OfzIScnB5MnT8bkyZORnp6O+vr6qLXdca20QYjU8ZAkpiSnKrKJ9vb24u2335aUaFcqyaTeTmbIYnbppZfi1VdflSTwkRyCEyZMCJmQVhAEqFQqjBs3DhqNBo8++mjKCnxmsxkNDQ349NNPk07gixZSErCpqQnvvfdeUi64kSAIAtLS0tDY2IgDBw4knSY2UsiBacGCBWKEebQVAyJ9LsMwmD9/PqZNm4a333572NgYWeWB1LgOJMiNpoNEot+FrM2TJk1CVlZWQEGA4zgYDAa0trYOM5UnOyQd1vLly8X8dEpBrFSJXP9ITtXu7m60tLTEvC8mROCzWq2STVxqtRpWq1UMmwbOTSCSkgM4d5KxWq1ijVN/TVGkEDOIkgNJTshpNF6nN51OJ8m8AZzzHcvNzcVVV101rPxPMNRqdcg6p6kAGavxSDCs1ALtcrkwceJEbN++HXfffXfY7xjP1AakxmQ0yVEJHMchLy8PO3bswMMPPxwwH55cyDEXpd7DP1+lP2SjCnRfOcaU/9pM0Ov1ovsH0UaQ1C4jgx/8tRWpfpgAEu97TLIdbN26VQysDIZGoxEPBIGQW7NKNHb+YySQJjhQf/n/GxkzSq2BZO0JVls9nt9cpVKJ/RdrpoW4lVYD/r1B/fd//zdWr14NILxGrb6+Hj/+8Y+xYMGCYQOXpIIgkZ0PPvggli1bJmYl12g0kgUR0g6dTodvfOMb+N73vhfF2yUnZEOM1oeAJNcORqQLglqthsVikVSVItaAh0CTLppJGO3CQn4TS/qUYJBJrwT+i50UZ+FYxl8o+vv70dbWht/85jdoaGiI+hnEjEQOjfFaqEmh+Fj6IpJ7BBt3JNelVqsV70P8oiNZM6U8l/Tlxo0bcccdd6C0tBQejwcDAwPo6enBj3/8Y0yePDngoYG8ayiUTl0SDKXNowzDwGKxwGw2h2xLuLVJrjFBIBU3Nm3ahNtuu00UNnU6XUTrmdImfrfbjbq6Otxzzz1Ys2aNeAiLt38x2RPlev+EaPgKCwths9kkXWswGJCfnx80nQjxV8nLyxPrDlqtVlx77bVoaWmJqPMZhhETwo4GXC4Xurq64HQ6UVxcHLGpymw2Y+nSpXC73Xj88cdlMXcnUg1OfAVH/ls094lmk46HkAMAGRkZWLZsGbq7u/Hqq6/G5RlSCKQ9Gvn3jIwMrF+/Hmq1GgcOHJD1u3McB7VajalTp+L666/Hww8/jBdffDHiBZeMk3iNS9Iep9OJK664AtXV1VFbEEpLS3HLLbegqqoK77zzTsTt8Pl8aGhowHe+8x3wPI+HH34YL730EoqKirBy5UrMmjUrqnaFIysrCw6HA2q1WjTjpqenQ6/X48yZM8O+Gdk0J02ahJtuukl0fA9EtHMz3gKZ3FYJ/1Q0UiHrdTQHQ6IA2bx5M7KysoZZ2KLF6/XC4XDgmmuugcPhENNumUwmXHbZZeL/H+tz4vFtAykOiGySmZkpHhrj7dcs9zMSIvCRvGtSILXtAi3ERINDchoRHxGj0YjOzk6UlpaKpp5IOkhuHx4SYJLoaCKWZVFTU4OcnByoVKqIJ5LBYMDkyZMxMDCAJ554ImXMK8RkMGPGDLGcGPEvmjBhAqZOnYrDhw9LzqFVX1+PWbNm4bnnnpPch0VFRViwYAGsVqus/ZaXl4fOzk6sWbMGZWVleP7552W7dyiKiopQV1eHt956S7IPLsdxMBqNaG1txXvvvYfPP/9c1sWY1PE0mUzo6OjAK6+8ErHAJwgCKisrMWfOHDgcDni93rhlHbDb7ZgzZw5ycnKiTqCam5uLOXPmiIfbSCEJrwsKCmC1WvHyyy/jpZdegs1mw9SpU1FdXR2XeU7ybJJa4ySHGJmb/pD3KisrQ2dnZ0AtHtlgS0pK0NPTg8zMzIjWt3iY3Mj92tvb0dbWhoGBAdnW+2gEvlifp9FocMEFF4gHolifzbIsrFYr2traoFKpRC1vdnY2cnJyxDU61sj/eHzXYMomIsvwPC+uzZWVlXFzoyJrVX5+viwKmIQIfFLR6XQoLy+HXq8/z8eDlBopLi4OWGokmBlJCVX7qlWrsHfvXvzjH/9IuBqaYRhoNJroo3jikMol3hATwdKlS8VcXuTdL7jgAhw9ehR33nln2G9BfjNt2jSwLIvdu3dLPgw0Nzdj48aN0Gg0sn7zmpoarF27Fg0NDQkdy1VVVVizZg36+/sj9huJdQyRuT40NBRQGCFjPFJNDzGPNDY2or6+HllZWaIAGejaWL+jHGZ4co9YtMekVJN/n/n/b6XNkQRSPjHQnCNtHDduHMrLy2E2myXPTb1ej+LiYjEVlFyQe61YsQIXXXQR/vCHP8QsPJMAHBLlW1RUJPuaEgq50+H4a2RramqwZcsWWCwWMAwTs0JEEARkZWWhrKwMWq1Wlm/L8zxyc3PDpoLzeDwoLS3F6tWrodPpgiqoYknRwvM8GhoaUFdXB4PBIEvVjYQLfKE+yowZM3D77bcjMzNzWEeTDX3RokXo7OyEwWA4r4ODSdgjfUsS4VBrs9lgtVrj+gxCqHeOhnj4nyUChmGQmZkJnU437CSUlpaG7OzsiO6VlpaGzMxMUXCW+pusrCwMDg7GPDH9n2kwGGCz2WRb0KSi1+ths9ki8nHzD56KdgyRpOE7duzA/v37A0aDx+o7YzKZxAChYPeI1Z9U7nvEqgUh9/BfB6Ptw3itoVL6y2AwwGw2ByxTFoz29nZ84xvfwLhx4+ISkU3miRxwHAe9Xo9bb70VLpdLXIvkLrEVDLnXfv+x4v/t5HhOf38/urq6MHXqVOTm5soyT7xeL1auXCn6HvprqUdeS/JPBkvb42+RjBaTyQSz2ZxaPnz+hPIDstvtcDqd522aRMOXm5sLlUoFt9styTzndruxbt06qFQqPPfcc6KpeGS6ALnx+XxxSfdCFmm9Xo+77roLTz/9tOjQSQnc7yQVRCSQ30QyRqL5TSCI3xWBpCBKtBAezXPlMGsQ05LT6YTH48G7774b0/0CQRbPYNq3oaEhtLW14fbbb8cjjzyS8mlb5IasOUpoBolZLRJsNptYm1SuetL+yCmMkb2usrJSTHAvx7qSDETz7ULBsixycnKQn58fU7kxf3ieFytmhFv/gh1sycFl4sSJ+NnPfoadO3dGfbiSe39PiMBHHPerqqrQ1dWFmpoaeDye88w+pHZesE4mA5/4c4SDZVnU1dVh8uTJePPNN8UTQU1NDUwmk6xJiRsbG1FRUYG//e1vcd0giN/D1KlTUVFRgcHBQVgsFlkETCUEi1CMNUFWEATk5+fj6quvxl133YUjR44k5LmTJk2C0+nE3//+d8nPJAIhmdsajQbt7e1IS0uLeQyRw5rX61UkRQ/JO9je3o4///nPY24cBoPneeh0OnR1dYkO99H2Dcuy4ppFNsh45URlWTZpE/YGw18wjVcwWKpDhDK5tZ9y7N+CcK403OzZs/HTn/40aQT2iAU+InBlZWWhoqIC77//vqRTk8/ng9PpxJIlS1BRUQGv1yubGjwUXq9XFCLdbjcWLlyIxsbGiLLRS2HixImYPXs2Pv7447io38mAsdvtqKyshFarxYUXXgiv14ve3t6Y30Wr1aK9vR0OhwOffvqpYgNUEM7Vo6ypqYHT6QxoViVCRllZmZiOR+kJJdfp0uFwYNWqVfj000/xi1/8IiEZ8cnY7e3tlSTwsSyL/Px8tLW1IS0tDYIgoLW1Fdu3b4fRaIxrXrtEQAIM3G530h2CYsU/dVCk44rjODE4Sq1W4/DhwxGvO0SDVV9fj8HBQbECRF1d3XlmZwolGmJ1+ZALjuPgcrmSav2IWuCrqanBtm3bsHXrVnz22WeSOlen08FsNkOn0yXMJwEY7r9nNBqHnS7lQq/Xw2w2x034IPesra3Fddddh+LiYrHGnhyO11lZWdi6dSuqqqpw4MABxSYLyam4fv16zJ07N6C/JnDuBLx06VIYjUa8+OKLik8qIvjEikqlgsViwZYtW3D48GEMDg7G/d3I2JUaaDE0NISmpiYUFhaK8zgvLw81NTXwer2KL7RyQAQTUt9ztLwTCVCJdq1iGEb0gYxG+0pM6cuXLwfP8xgaGoLVasWyZctk8VeMBfJcUi9+tCTjH0sQl5D09PSE+z0Ha08yEZVJVxAEpKeni9EjUuF5PmwuL39Ick45O420QW7IfeP9gdPT01FbWwuTyYTBwcGoBnUgDQypcZuRkSFXU6OCmOsrKiqQl5cXtIQey7IoLS2FyWTCyy+/rMjEYlkWarUal156Ka655pphyWT9N8NI00f4fD6UlZWhqKgI//rXv+L+bpGOXZZlYbPZkJmZiX379oltdrlcKRfhHQySQ+zqq69Gbm4uent7lW5SzAwODmLlypVobm6Gw+GA0+mE1+uNONFurMnRGYZBcXExGIaB2+2GVqtFUVGRmHZHCUheRp/Ph+nTp2Pq1Km488474+LzJwcMw0ha/4nZs7+/f0yUEXW5XKirq8Ntt92G2tpaWTTGpHrJwMAAWJZN6UpQUfvwxVNdSdSxs2bNwrp16/Dss88q7rjKcRwGBwcV9wPx7/dIBh4JD29ra8OWLVvOmwjE5J0si4LH4wn5zcnmQEo3yQ3HcRgaGgo5wYkWaMqUKZg0aRJOnTolbp4ulwsFBQXo6enB66+/HvHCQ1wRkhGyOYbyt011OI6D2WzGlClToNfr8dFHHyndpJghSZinTJkCn88nmqyVgIxt4rKg9Fj3+XywWq248sorYbfbYTKZ8IMf/CDpNDTAuXXH4/Fg48aN8Pl8AdOCkPX89OnTaGhowM0334zy8vKkMHXGE5/Ph5ycHJSUlMgWyOFyudDR0QGHw4GqqirFx2osKJ6Hjzh/+0MG5MSJE7F582aYTCYUFBQoambMycnBJZdcArvdLjloJJkgAl9zczOWL1+OoaGhqPuT4ziUlJSgoKAAH374Ic6ePZs0gmKkkFM9gQhmubm5WLhwIYqKisJWOCD54vzHhMfjQV5eHtauXZuw4ItUJ5nGECkuPzQ0lPL1nQmk+Ly/qZK8V6B1eCxB6tF2d3dDpVLhjTfeEIUopQ/5gfD5fFi4cCEGBgbO8zPlOA5WqxXTp0+HzWZDWVkZ1q9fP+r8UQNBDqP9/f1i/slYcbvdmDhxIiZNmnTefhEOcphJljEUs8AXa843k8mE0tJSvPvuu+d1ytDQEAoKCrB58+aE5bUL1Eae51FSUoJt27aJOQJTNXJqZNqPUAQ7DZLktYsWLcIf/vAHvP7668jPz0+qJK7hIMEh/9/eucY2dZ5x/H/OsX3sxE7iS+wkjp2QYAIhKQwIaQIpa4CuFHEpqoSyFio6GLSDTgKp5dMuTNMunboP1TSp7MOmdtLEpkmV+qHVqpVOmzQY66R0aztVA1JKrwTixPHtHJ+zD+g5zcV2YvvY59jn/KRKFBL7vT7v8z7vcwkGgxAEYV7bab6//e1vIxAIFOXLM9dyMTcXZK0L3ELheR6BQABWqxWtra0VCVKpFdQaJ0mS4HQ6sWLFCkSjUUOOPyn4giDMc0twOBzweDxle0koBpLLuSKbBUGAz+fD2NgYOI5T0piVq/3Vmrt1udDaKNQ6KssyrFYrIpEIfD6fLmRbyQpfKTdfQRAQCoXwxBNP4Pr164v8JSjnXHt7e0G+f+XAbrcjFApp3o5SWe7Gz/cz5Pzd19eHVatW4erVq1i5ciVsNptS2k7vZDIZ2O12PPzww8qYzBWedrsd7e3tJTv+ar3B9U4gEMDJkyexZs0adHV14d///ndV769qJJlMIhKJ4NixY/jVr36lK0trpSFZQJf6UCiEjRs35gwe04K5pc+yyRdSNPx+/yK5Vs720HfXIsX0SxRFNDQ04OTJkwgEAhUvtZqNohU+8nn41re+hZdffrmoGxCZngcHB9HT04Nbt24t+hm1kzXmw+l0YseOHbDZbLhw4cK8ySlXsEcloDQTsVgMiURiSSU9k8ko6UEikcg8AUhQse0NGzZgYGBAKWcmSZISFFLMZSCTySAajZb9eYmigfv7+wEA77333iKfxkwmo0oQAt3GI5EInnnmGfziF7/A5ORkwZ9DzsNTU1Mlt8fhcOCb3/wmLl68qPydFrhcLoyMjODee++FJEl49913a/bQUIu5l5VYLIZ33nmnpINEFEX4fD4MDQ3h9ddfV83vqdqh6j3BYBAWi0Vzh/2ZmRlEIhEcPnwYXV1deQNcCnnJKRZah4cOHQLP87oNcNEKMlht3bpVyRdYTtlGnz0zM5Pze0pS+BoaGnD06FG89957mJ6ezisoUqkUksnkop+RJAmJREKzJKtzcblc2L17N3ieX6Tw6RnyNcq1wSmq8sEHH0Rzc3NeQUC3Rr/fj6effhp+vx8zMzM5vzeRSCgbneM48DyP3bt34+rVqwVH3MmyDLfbjcOHD6OzszPnDXZuf0tZM+T8TH9Wk3Q6rfhJ0n9dXV14+umn8Yc//KEohS+VSiESieDo0aO4c+cO3nnnHbz//vsFfw65Ujz55JOYnp7W9KmZ5rIcqZJqFUmSYLfbsXv3bkSjUXzwwQclWZ/oQphIJJQggGKRZRlbtmzB0NCQLp6wSqWQykw0hmorhnRh/OpXv4oHH3wQBw4cgMvlQjwe1/TMJIXm4MGDkGUZsVhM8zNcb8iyXJFXLzJgrF69Gnv27AHP81lletEKH71rT09PL3mwS5KESCSCpqYm1SpclINkMomZmRkEAgH09PQgGo1q3aQlkWUZ9fX12Lx5M1pbW7MempRi4tixY0p0Kwn1XIcsWdrcbvey25LJZOBwOHD8+HH873//AvUr+AAAF01JREFUwxtvvLFsgU9CraWlBefOnQOQ3T+UrFObNm1CKBTC7du3l92+crCwjiL1NxwOY2BgYJ6FUBAERKPRog/nRCKBjRs3YvPmzZiZmcGPf/zjohQ+aift3ULTcpjkpxLBD3SQzM7O6kapoovN0aNHsX///pLWuhptqXQQisfjwfr16xEIBFS9vJBsPHToEIAvg2/0oFyRogeU5t5VTub6UNcqmUwGNpsN27dvx5kzZ1BXV5d1DZZd0pPj+t69eyEIApqbm7M+0ZbTqXQp6Hs9Hg/q6uowPDyMU6dO4fnnn9etckpQdYYzZ87A5/PlfUqhRKvUX4Zh0NjYWHDFk+XMVSlWAnIPyBUwQkmiw+EwXn755aK/p1AWtomUz7lJl2m93H///RgaGlLdjM+yLCwWC6xWqyqBQ2rsu1I+o9aEMMMw8Hq9sNvtqlu49D5W1D611mYp7eA4Dj6fb167ivkcclXJ9m8L/3716tU4ceIE3G53WZ606fKo9zNJT8iyDLvdDo/HUxNuBvlgGAYsy+Z1Q6rI1V6SJITDYQC5C6yXoybeckmn03C73RgbG8OGDRvg9XrR39+vi5JdS0ELuq+vb0k/w7mCQhRF1NXV4YEHHsDExAQuX768bEFCz2/5xqbU6O1cyLIMnuexdu1aOJ3Oiq6ZhWkNBEFAX18fNmzYsOgS09raivr6eoyPj6t+6BcTMZYLQRCKThhOCk2hqQoWfn+tHGD0rPL1r39diYxUq29k5akGtM71RlHHhw4dwn/+85+intRk+W7FhkgkApvNtqg/2dLYNDU1wev1ql7wfu53miwfUsq7u7tx8uRJ/PrXv675MVxK5pR8DZPlu4XOE4lE3k2eS0mgjbVt2zbs3LlTEz+edDqN1tZW7N27F319fUpS2WqBni8KETLkBzQyMoKdO3cuK6k0HTojIyPYtm0bnE6nJofQ3P6q9YxAwSbZFJdMJoP29nY89NBD6OjoUNawKIpYuXKlsmYW/k62z5r7BKIl1Ift27djeHgYDoejYGFIT/jDw8MYHR2dt7fT6fSSz40rVqzArl27EAgEqmq/5YLKhu3duxfr169XxS+RSuvZbDYMDAxgcHAQLMvW/MFVCuSjumvXLmzcuBGTk5NFBRQ6HA48/PDDcLlc8+ZRkiSsWbMGu3btmnfpJCXQnBt9QApfZ2cnDh06BI/Ho/llRGtKsvCRsrZ69WoIglBUCgsqyH38+HEA0MQ3YW7wgSiKsFqtFf1+raAIaI/Hg+HhYdjt9iXTsYiiiKNHjwL4shpGtUNPs1u2bEEgEFj0XCMIAgYHB3H27Fn09PTM+zdy6s71hE0uDXQQWK1WDA0NYWJiArdv38bExIQmlxwSfCdOnEA6ncalS5cKbgdF6j/++ONKmaxMJgOWZRUfRqvVuugApPEbHR3FM888A7/fj9nZWcW/N5VKqarMVxKysodCIaRSqaJ8lml8mpubMTAwoCgfjzzyCKxWK06dOlU11j6toMtpV1cXOI4r+GyS5btVdJqbm2GxWJTxps8dHR2F3+/H+Pi4GZ2qc8pZFazaKEnhy2QyqK+vx5EjRwDcLSBf7OFFgR9aKHsNDQ0Ih8Ml+Z1VI2T+3bJlC9atWwev14t0Or2kYCxXZKtWSJKE5uZmPP/883A6nYrCt7AeLl0IlrtOZFlWEgp7vV4lm/9Pf/pTpFIpvP766/jud79bdHCQGoc+WbNL8XOaa50ja9RDDz2EHTt25H12p/JepNzJsqxU1WloaKhKpYYOlQMHDijzXaj1ksom3n///Th37pySv4sCbDo6OgxzKS2FWCyGw4cPK/nQsq2npZ5fcykJtHYLLXFpYqIlJVv4yPEfKM13QyvlIZFIYGBgAD6fD62trTl9DGsV8gF0OBzLFly1OD4cxyll83L1L1cQSS4EQYDH48Fjjz0Gp9MJ4O6FxufzQZIkNDU1leTcbrfbi/5dQq2gjYV/rq+vh9PpXPJWvdCSumrVKhw9ehTr1q3DX/7yl5LapSVOpzNvctylYBgGLpcLPp9vXnqf3t5ePPvss8oaqsW9qBaSJOU9mxiGgd1uL/qVwhx7k2pjWQofx3HK4cLzPDiOA8uySo3JajaVptNphMNhdHZ2GlaA0mGiRpLhaqaQdUzBIy6XK6fSlslkUFdXh82bNyufT1bVTCZT9L6RJAkcx+G+++7DxYsX81rVRVEsOB+iGhSj6GQyGfj9frS0tKChoaGq3QWyWYmL+YyFKSVaWlrQ1tampFcyyU+uPUbP5Fu3bkUqlTKs7DcxFnkVPhJWn332Gf7+97+DYRhMTU3h448/RjQaxfj4OPr6+kouP6U1JFjn9mGuL9FyqXb/I5Plk0ql0NPTg6GhIdjt9rzPdmrvDfIF3L9/PyYmJvDiiy9mjSJkWRbt7e245557dFULNB9zlRxBEHKmxTAqND7lSHtCz/OFWPrpSR6oLvlHz+379++fZ7SgdkuSlLVQgIlJOclkMmXdQ3kVPioo//bbb+P69etgGAaCIODq1av4/PPP8ctf/hLf//73EQwGNbshkZO02s9SPM8jGAyivr5+2Z9Bv6NV9KpJ5aAn2ZaWliWVqXLui1xCIZPJgOd5jI2NYWxsDFartWrqHJNS4/F40NbWVjXKqlpQYEAuGVKOsaAAPL/fv+wLvMViQSgUUvJQUt3z+vr6qpd/drsd4XAYPM9r3RQTgyDLd4soUEqvcuyhvAofOaQODAzg8ccfBwBMTU3ht7/9LcbHx3Hq1Cn4/X5NzeE2mw0ul0vVQyGZTKK7uxvPPfcc2tralvU8lclk0NHRgeeeew7BYBD/+Mc/VGlLtaJmDrLlfI+RFIK5LDXGHMepelOs1FjPzs5ibGwMe/bsgdvtXpZvrRr+iHqAZVnU1dUVnBC9FARBgM/nw1NPPaVc7PP5slIC9J///Odoa2uDKIro7u7Gz372M7S2tmJ2drZibS+FhWuG+haJRPDCCy+go6PDcH7dJtqQTqexceNGhMNhxXdXbfIqfLTIPR4P+vr6IMsyJicn4ff74XQ6EYlEwPO8Jr425B/T29uLY8eOLVkjthAo+njt2rXLPkQotUc4HAbHcYavC8owTEV8Aim7uFZPSHo/CEghVKt8WqXGWhRFBINBAHeV1uWkvmAYRvdPiUshiiLcbjf27dtXUdlK0dWdnZ3K/+dDlmXYbDb09/crMnKuzKxmCx/1pb+/39CXSZPKIkkS3G63Us604hY+Qo83Z2pPd3c3VqxYAZZlVReOhfSbFDw9jlWloYTE0WgUDoejbOMhiiI6OzsxMDCgWIGyodeEqNmy9esZl8ul3ED1dKGhIu733HMP7Ha7ksak3MiyrPq6It+y7du3g2EYXY1zNrJZyGpF/tVKP0yqBzJklWvtLfvaTw2Yu6H1sCGotmg5bmLL/by50ZoUQUmRmHoYo0oTi8Wwe/dufO1rX4Pdbi/boZVIJDA6Oopt27bBZrPlrNFstVrhdrt1l2eR53m43W7E43HdKaPZCIVCeOqpp8CybEWSzS537wiCAJfLhSeeeEKZ73IHDlBUu9vtVt3Pi2EYJc9epddFofJq4c/Xkryrpb6YVA/lXHcVqaVbTrR8PiDH6rNnz+LIkSNobGxEOp2G1WqF1WqFzWbTtIi4VtDzNsuyqgTULPU9DMPkVK5jsRgGBwfxu9/9Dk1NTbpQwinKcufOnejo6MDY2Bhu3ry56Ocq5Qc5l3zP8BzHweVyabbn8o0Hy7JKsFQlrGLJZBLhcBgvvfQSnE4nWJZVdUyq4QJgon3dYBOTQqh6hU9rZFmGz+dTEqFSRYZ9+/Zh27ZtaG9vVzVfVrUIl3IVEM/2PfmQJAkOhwONjY2qK5+lfpbT6UR7e3tO/zryT1SbbO2W5btl844fP47PP/98XrqNhT+jFfnGg9pWKUWJLInt7e0QRVFTn7VqkQm1iJb+wyaFYe4TU+ErGcpdJQiCchiJoojVq1cDgGJ9Uuu7zEVbGJRjK5lMqiqcaS5KmQ/KuZTtM0RRxObNm9HV1aVYJtUgX5tFUcS9996La9eu4Z///Kdu1hpZRAcHB9He3q6bfSDLsubJj/UyFkaD0gYdOHAAkUhE83VgsjTmXjEVvqKhvFWrVq2C1+tV/o4g5UKtRcYwDAKBAERRzFqQ3qR8LHxKpJQUK1asgMvlUn0uKBhg+/btkCSppPJPcz+TYRi0tLQgHA5jdnZ2XhUHu92urOVr166p0Q3VIIXvgQceUKy0au2rQp/kSn3CU+sJkD7D7XZj5cqVpkyoMJIkIRAI4MSJE7Db7UgkElo3ySQHZI1fuXIlvF5vWYMi9I6p8BWJJElwOp34yU9+gqamprJGq1EgyMGDByEIArxeb1VFd1Y7VAaN5jMej2N0dBSDg4Nwu915q2wUiyzLcLlcyveXupYo7cajjz4Kh8OB8+fPK7nWJElCR0cHfvSjH6G9vR1vvvmmGl1QHZfLpVho1fIjLNT1oJSSePT7aimqLMvivvvuw7p16+D3+8uyDk1yY7FY4PV6S14TJuUlnU7D6/Xi3LlzaGhoqFgUvx4xFb4SsFgs6OnpgSAIZfVtIutMa2srGIZBOp027A2lksjy3dJRJ06cQDqdRjAYVMreeL1eBAIBCIJQNv8tNdeULMtgWRZtbW0Ih8OwWCzzou0dDgd6enpgs9l0mwqE2sWyLBobG/Hkk0/C4XDg1VdfLViA09x+5zvfUWqF5+t3PB5Hc3MzTp8+jT179hR8oRMEASMjI/jGN76BjRs3qpKYmGEYeDweBAIBJJNJUyZUGLLEm+gbsvBFIpGyn9V6x1T4SkCW5Yqa8s0bfOXJZDJYu3YtWJadV+NQFMWqFBzpdDqr36AkSUgkElXhhE7WyrVr12L9+vV49dVXi/ocURQxMDCg+OLlUpiSySQikQieffZZ7Nu3D8FgsOC0NJIkIRgMYmhoCH6/HzMzM6qMc7WuQxOTSlLps1qvGELho2cr8wZsUigMw8xzyC6nMmTUZ4ZiICUtkUgUbWFlGGZZh0AqlUJXVxdCoRBsNlvROQhFUUQ8HocoirpXqk1MTGqPmlf4ZPluUe/GxkbwPG8qfSa6hOM4OJ1OUxEoELvdDq/Xq0TIl2N/U4AWz/O6yONoYmJiUgw1r/Cl02msX78eZ86cQTAYLEtB4mKhJ1qyUKTTaUxPT5sHioGQJAkMw+DYsWM4ePAgnE6nbp7oZFlGLBbT5VMI7ZHh4WG0traiqamprBZSrXMQmpiYmJRKwQof5Z3T4yGQjUwmg7a2NnR2diKdTiOdTuvCihKPxzEwMIATJ07gb3/7G0RRxMjICL73ve+VJdWHiT6hgJyhoSGsW7cua8LjfAiCoGppNnrCjsViqK+vx+nTp+F0OstyUSol0IB+r6OjA6tWrZqXZsbExMTEZDEFKXzkLL1hwwY0NjZWRXgzwzAQBEGJptKDsgfcPex6e3vx2GOP4YMPPoAkSejv78f69esRj8c1tfJlMpmajgSWJCmvk74WxOPxgi9R6XQaPT092L9/P9xu97L3IiV8XvjzFHW4adMmtLW1ob29HTt27EAymUQymVRl71B0bG9vL7Zu3Yq6urqSopzpEqd3SAbpac2ZmJjUBiS7l3qFKFjh43keo6OjGBkZgcVi0b3Cp1eoAkcikVCSyepB0WIYBs3Nzejp6anZZK4NDQ1Yu3Yt7HZ7VWdfTyQS2LRpE3p7e9HY2LjsuWpqasKaNWtQV1e36HdSqRR27NgBURThdDoRi8UUK6QasCyLnp4ejI6OYt++fUr921pGkiSEw2Ekk0nYbLaqXW8mJib6Q5Zl2Gw2dHZ2KqnbcsmYghQ+EvyNjY1gWda8sZYIjR3HcWBZVnPlgxI8Dw8Po7u7Gw0NDTXlt0T+cmvWrMHZs2fR3Nxc1QotJf+meVpq7VBf+/v7cfr0abS1tS2yjsmyjMbGRuVCoub4UF3j06dPIxwOK1bJap6DpSDfvwMHDijluMzcbSYmJmohCAKamprw6KOPwm635315LSpoo9Ds9CbZSaVSCIVCOHLkCMLhsOZjSgp9R0cHuru7kUwma+4wlmUZgUAAoVCoJvpXzF5sbW1FR0cHkslk1hQh5VqHlAD1vvvum+dmUetIkoS+vj4Ad5+gq33NmZiY6Acqv/mVr3wFkiTlfSWs+ShdPZNOp9HW1qaUTNNLAe5aP4yNnqx2bv8r7dMqy7KuIuUrhV72tomJSe1BvtFLYSp8GkIVG2KxmNZNMTExMTExMalhWK0boEcYhtFNNG+lMWLfjdhnwgh9z1Vpxwh9X4gR+0wYse9G7DNh9L5nw1T4ssAwDDiO07oZmsCyrFK1wCjQfBtROBhhvikCHvhSEBp1zo0w39lgGKYq6kSrDcuyhjzLjDrfQH7ZZrydnwcaoGvXruHPf/4zBEEwzIJhWRbpdBr/+te/MD4+boh6nxS+/uGHH+LixYuIxWKGEY40t1euXMH4+DhSqVTNKgKhUAiPPPIIWlpalMTrsVgMb775Jq5duwabzaZ1EyuC1WrF22+/jcuXLxtifxMcxyEajeLSpUt4//33YbHUvicTybZ3330Xf/3rX7VuTkXhOA6xWAyXL1/Gf//7XwD6yb9bbhiGweTkJP70pz/hzp07i/pdmxK+SMgEfOXKFbz44otIJBKGWSgcxyEej+OVV17Ba6+9BkEQal75IaE4Pj6O8+fP486dO4Y4DIAv1/of//hHvPbaa5idna25+aY0R319ffjhD3+ISCSCRCIBlmUxOTmJ8+fP48qVK6irq9O6qRXB4XDglVdewYULF5BMJmtuvnNhsVjw2Wef4cKFC3jrrbcMoeCzLAtJkvDGG2/gN7/5DQDjKD0WiwW3b9/G73//e7z11luq5hHVM2TVvHHjBl544QXcvHlzkZXTGKdbgVgsFthsNkMskrkwDAOr1Qqr1ap1UyoKx3GGnG8AynzXct8pwflcwc8wDGw2GywWi2FyiVJanFqf72ywLGtI2Wa1Wg2h4C7EqGcZcHet8zyf9cXGtPDlwGgCkTD7bSyM0u9sSp1R+j4X05HdeJj9Nh5m0IaJiYmJiYmJiUFZ1pMux3GKibCWnz+ofxaLRXny4XneEJnxyfRPUV08z4Pn+Zr286G+LpzvSkD+FvSUbLFYlO+uxHqjtU5jQH2v1cCNucx9wrdYLMoTSK1DfaV1V+v7m+B5fpFs07qqUbmhKE0q28nzfN4aq7VEtvnOV26sVqAzJd8z9pIKXyaTwdTUFK5fv76sep3VDB2Ct27dQjKZxI0bNxCNRmt+oQBfOrrOzMxAEAR8+OGHqK+vr2nByLIsRFHEF198gUQigZs3b4LjuEX1ZcsBbc6bN28ikUjgiy++wMTEBIDKKnwzMzNgGAYfffQREomEISqQcBynjPutW7fw0UcfYWZmRutmlZ36+nrMzMwgHo/jxo0bmJqaqun9TdhsNnz88ceIxWK4c+cOrl+/jkQioXWzygrJsampKczOzmJiYsIwCp/NZsPNmzeV+Z6YmDCMwscwDD755JOclbKY27dvZ10BNGgvvfQSLl26hGAwaIjFAgDRaBTT09Noa2szxA0Y+LLqx+TkJBiGgdfrBcdxhpjz6elpRKNRtLS0wGazVazPDMMgHo/j4sWL6O3tRWdnJ4Ds/mbl4tNPPwXHcfB4PIYJYGAYBul0Gp9++ikaGhrg8XgMofiwLItPPvkEkiQhEAgYZn8zDINkMonbt2+D53n4fD5DHP6yLGNychLJZBLBYFDrJlUM2t+Tk5Ow2WzweDxaN6mi0KXuBz/4AVatWjUv6XxOC18mk4HT6cS2bdsQDocN8dRDkMOjEYThQozYdy37nMlksGnTJtTV1cFut1f8+40434QR+27EPhNG7LsR+0wYte+SJMFutysXm7n9z2nhm/vLlM/KKBh1oQDG7LsR+0yYfTdW343YZ2B+1KKR+m7U+QbMvmerNPJ/dLUoZsWjt5QAAAAASUVORK5CYII=;" parent="1" vertex="1">
                    <mxGeometry x="60" y="320" width="220" height="110" as="geometry"/>
                </mxCell>
                <mxCell id="50" value="" style="group" parent="1" vertex="1" connectable="0">
                    <mxGeometry x="340" y="300" width="370" height="140" as="geometry"/>
                </mxCell>
                <mxCell id="46" value="" style="shape=ext;double=1;rounded=0;whiteSpace=wrap;html=1;" parent="50" vertex="1">
                    <mxGeometry width="280" height="50" as="geometry"/>
                </mxCell>
                <mxCell id="47" value="" style="shape=ext;double=1;rounded=0;whiteSpace=wrap;html=1;" parent="50" vertex="1">
                    <mxGeometry x="30" y="30" width="280" height="50" as="geometry"/>
                </mxCell>
                <mxCell id="48" value="" style="shape=ext;double=1;rounded=0;whiteSpace=wrap;html=1;" parent="50" vertex="1">
                    <mxGeometry x="60" y="60" width="280" height="50" as="geometry"/>
                </mxCell>
                <mxCell id="49" value="" style="shape=ext;double=1;rounded=0;whiteSpace=wrap;html=1;" parent="50" vertex="1">
                    <mxGeometry x="90" y="90" width="280" height="50" as="geometry"/>
                </mxCell>
                <mxCell id="60" value="" style="group" parent="1" vertex="1" connectable="0">
                    <mxGeometry x="1110" y="150" width="70" height="420" as="geometry"/>
                </mxCell>
                <mxCell id="52" value="G" style="ellipse;whiteSpace=wrap;html=1;aspect=fixed;fontSize=28;flipV=1;" parent="60" vertex="1">
                    <mxGeometry y="350" width="70" height="70" as="geometry"/>
                </mxCell>
                <mxCell id="56" value="C" style="ellipse;whiteSpace=wrap;html=1;aspect=fixed;fontSize=28;flipV=1;" parent="60" vertex="1">
                    <mxGeometry y="230" width="70" height="70" as="geometry"/>
                </mxCell>
                <mxCell id="57" value="T" style="ellipse;whiteSpace=wrap;html=1;aspect=fixed;fontSize=28;flipV=1;" parent="60" vertex="1">
                    <mxGeometry y="110" width="70" height="70" as="geometry"/>
                </mxCell>
                <mxCell id="58" value="A" style="ellipse;whiteSpace=wrap;html=1;aspect=fixed;fontSize=28;flipV=1;" parent="60" vertex="1">
                    <mxGeometry width="70" height="70" as="geometry"/>
                </mxCell>
                <mxCell id="61" value="" style="group" parent="1" vertex="1" connectable="0">
                    <mxGeometry x="780" y="310" width="200" height="100" as="geometry"/>
                </mxCell>
                <mxCell id="62" value="" style="shape=ext;double=1;rounded=0;whiteSpace=wrap;html=1;" parent="61" vertex="1">
                    <mxGeometry width="151.35135135135135" height="35.714285714285715" as="geometry"/>
                </mxCell>
                <mxCell id="63" value="" style="shape=ext;double=1;rounded=0;whiteSpace=wrap;html=1;" parent="61" vertex="1">
                    <mxGeometry x="16.216216216216214" y="21.428571428571427" width="151.35135135135135" height="35.714285714285715" as="geometry"/>
                </mxCell>
                <mxCell id="64" value="" style="shape=ext;double=1;rounded=0;whiteSpace=wrap;html=1;" parent="61" vertex="1">
                    <mxGeometry x="32.43243243243243" y="42.857142857142854" width="151.35135135135135" height="35.714285714285715" as="geometry"/>
                </mxCell>
                <mxCell id="65" value="" style="shape=ext;double=1;rounded=0;whiteSpace=wrap;html=1;" parent="61" vertex="1">
                    <mxGeometry x="48.648648648648646" y="64.28571428571429" width="151.35135135135135" height="35.714285714285715" as="geometry"/>
                </mxCell>
                <mxCell id="66" value="输入" style="text;html=1;align=center;verticalAlign=middle;resizable=0;points=[];autosize=1;strokeColor=none;fillColor=none;fontSize=28;" parent="1" vertex="1">
                    <mxGeometry x="130" y="600" width="70" height="40" as="geometry"/>
                </mxCell>
                <mxCell id="68" value="卷积" style="text;html=1;align=center;verticalAlign=middle;resizable=0;points=[];autosize=1;strokeColor=none;fillColor=none;fontSize=28;" parent="1" vertex="1">
                    <mxGeometry x="490" y="600" width="70" height="40" as="geometry"/>
                </mxCell>
                <mxCell id="69" value="池化" style="text;html=1;align=center;verticalAlign=middle;resizable=0;points=[];autosize=1;strokeColor=none;fillColor=none;fontSize=28;" parent="1" vertex="1">
                    <mxGeometry x="845" y="600" width="70" height="40" as="geometry"/>
                </mxCell>
                <mxCell id="70" value="密集层" style="text;html=1;align=center;verticalAlign=middle;resizable=0;points=[];autosize=1;strokeColor=none;fillColor=none;fontSize=28;" parent="1" vertex="1">
                    <mxGeometry x="1095" y="600" width="100" height="40" as="geometry"/>
                </mxCell>
            </root>
        </mxGraphModel>
    </diagram>
</mxfile>